<mxfile host="Electron" agent="Mozilla/5.0 (Macintosh; Intel Mac OS X 10_15_7) AppleWebKit/537.36 (KHTML, like Gecko) draw.io/24.7.17 Chrome/128.0.6613.36 Electron/32.0.1 Safari/537.36" version="24.7.17">
  <diagram id="f106602c-feb2-e66a-4537-3a34d633f6aa" name="Page-1">
    <mxGraphModel dx="1674" dy="1027" grid="1" gridSize="10" guides="1" tooltips="1" connect="1" arrows="1" fold="1" page="1" pageScale="1" pageWidth="1169" pageHeight="827" background="none" math="0" shadow="0">
      <root>
        <mxCell id="0" />
        <mxCell id="1" parent="0" />
        <mxCell id="Lif8JBEafslfNm7ranTe-1" value="&lt;div&gt;&lt;b&gt;&lt;font style=&quot;font-size: 40px;&quot;&gt;&amp;nbsp; DPPS End-To-End Data Processing Pipelines | Azure&lt;/font&gt;&lt;/b&gt;&lt;/div&gt;" style="fillColor=#FFFFFF;strokeColor=none;shadow=0;gradientColor=none;fontSize=14;align=left;spacing=10;fontColor=#717171;9E9E9E;verticalAlign=top;spacingTop=-4;fontStyle=0;spacingLeft=40;html=1;container=0;" parent="1" vertex="1">
          <mxGeometry x="10" y="80" width="1390" height="720" as="geometry" />
        </mxCell>
        <mxCell id="Lif8JBEafslfNm7ranTe-2" value="" style="shape=mxgraph.gcp2.google_cloud_platform;fillColor=#F6F6F6;strokeColor=none;shadow=0;gradientColor=none;container=0;" parent="1" vertex="1">
          <mxGeometry x="24" y="90" width="50" height="45" as="geometry">
            <mxPoint x="14" y="10" as="offset" />
          </mxGeometry>
        </mxCell>
        <mxCell id="Lif8JBEafslfNm7ranTe-4" value="&lt;span style=&quot;font-size: 24px;&quot;&gt;&lt;b&gt;Cloud Architecture: Build, Manage and Monitor Everything Within Azure Ecosystem&lt;/b&gt;&lt;/span&gt;" style="fillColor=#4DA1F5;strokeColor=none;shadow=1;gradientColor=none;fontSize=14;align=left;spacingLeft=50;fontColor=#ffffff;html=1;container=0;" parent="1" vertex="1">
          <mxGeometry x="10" y="740" width="1390" height="56.72" as="geometry" />
        </mxCell>
        <mxCell id="0jSy_ca2VGsoWOgGTYAR-2" value="&lt;div style=&quot;&quot;&gt;&lt;font color=&quot;#ffffff&quot;&gt;&lt;span style=&quot;font-size: 24px;&quot;&gt;&lt;b&gt;Data Sources&lt;/b&gt;&lt;/span&gt;&lt;/font&gt;&lt;/div&gt;" style="html=1;shadow=0;dashed=0;align=center;verticalAlign=middle;shape=mxgraph.arrows2.arrow;dy=0;dx=10;notch=10;strokeColor=#4DA1F5;fillColor=#4DA1F5;container=0;" parent="1" vertex="1">
          <mxGeometry x="27.333140815818034" y="187.37371786870682" width="316.6653218751995" height="55.14806357690667" as="geometry" />
        </mxCell>
        <mxCell id="0jSy_ca2VGsoWOgGTYAR-19" value="&lt;b&gt;&lt;font color=&quot;#ffffff&quot; style=&quot;font-size: 24px;&quot;&gt;Transform&lt;/font&gt;&lt;/b&gt;" style="html=1;shadow=0;dashed=0;align=center;verticalAlign=middle;shape=mxgraph.arrows2.arrow;dy=0;dx=10;notch=10;strokeColor=#4DA1F5;fillColor=#4DA1F5;container=0;" parent="1" vertex="1">
          <mxGeometry x="732.02" y="187.37" width="307.84" height="55.15" as="geometry" />
        </mxCell>
        <mxCell id="0jSy_ca2VGsoWOgGTYAR-32" value="" style="rounded=0;whiteSpace=wrap;html=1;fillColor=#FFFFFF;strokeColor=#4D4D4D;dashed=1;strokeWidth=1;perimeterSpacing=1;container=0;" parent="1" vertex="1">
          <mxGeometry x="25.5" y="272" width="306.5" height="405.46" as="geometry" />
        </mxCell>
        <mxCell id="0BnKFGhoWImMdGGhruV1-1" value="" style="shape=image;imageAspect=0;aspect=fixed;verticalLabelPosition=bottom;verticalAlign=top;image=data:image/png,iVBORw0KGgoAAAANSUhEUgAAAfAAAABzCAYAAABn/1AkAAAAAXNSR0IArs4c6QAAAGJlWElmTU0AKgAAAAgAAYdpAAQAAAABAAAAGgAAAAAABJKGAAcAAAASAAAAUKABAAMAAAABAAEAAKACAAQAAAABAAAB8KADAAQAAAABAAAAcwAAAABBU0NJSQAAAFNjcmVlbnNob3TWqez+AAAB1mlUWHRYTUw6Y29tLmFkb2JlLnhtcAAAAAAAPHg6eG1wbWV0YSB4bWxuczp4PSJhZG9iZTpuczptZXRhLyIgeDp4bXB0az0iWE1QIENvcmUgNi4wLjAiPgogICA8cmRmOlJERiB4bWxuczpyZGY9Imh0dHA6Ly93d3cudzMub3JnLzE5OTkvMDIvMjItcmRmLXN5bnRheC1ucyMiPgogICAgICA8cmRmOkRlc2NyaXB0aW9uIHJkZjphYm91dD0iIgogICAgICAgICAgICB4bWxuczpleGlmPSJodHRwOi8vbnMuYWRvYmUuY29tL2V4aWYvMS4wLyI+CiAgICAgICAgIDxleGlmOlBpeGVsWURpbWVuc2lvbj4xMTU8L2V4aWY6UGl4ZWxZRGltZW5zaW9uPgogICAgICAgICA8ZXhpZjpQaXhlbFhEaW1lbnNpb24+NDk2PC9leGlmOlBpeGVsWERpbWVuc2lvbj4KICAgICAgICAgPGV4aWY6VXNlckNvbW1lbnQ+U2NyZWVuc2hvdDwvZXhpZjpVc2VyQ29tbWVudD4KICAgICAgPC9yZGY6RGVzY3JpcHRpb24+CiAgIDwvcmRmOlJERj4KPC94OnhtcG1ldGE+CsYJ5H0AADXRSURBVHgB7Z0HnFTV+fefZXfZShEbYgF7x4IiYgHFgr0bNRqjxiSmqSm+5qP5h5g3MSamm39iEkteK7HF3hWlCIpgx4ai2BUFd1l2l/ae7zVn58xlZm6fnWWf5/OZvbN37j3ld889Tz3PqVppSJQUAUVAEVAEFAFFoEch0KdHtVYbqwgoAoqAIqAIKAIeAsrAdSAoAoqAIqAIKAI9EAFl4D3woWmTFQFFQBFQBBQBZeA6BhQBRUARUAQUgR6IgDLwHvjQtMmKgCKgCCgCioAycB0DioAioAgoAopAD0SgJq02t7askNfmLJXOznRXpQ3dpFYGD6lOq5lajiKgCCgCioAisFogkBoDf/yhdrnjplZZmjID33WPejntrP5SV1+1WgCunVAEFAFFQBFQBNJAIBUTetvilXL3LYtTZ9508PlZHfKs+SgpAoqAIqAIKAKKQA6BxAx82TKRif9qkfb2FblSU/zWvmSlTH+8XVo+z6b8FJuqRSkCioAioAgoAmVDIDEDn/N8pzw5pT3TBr/0XKfMmqFaeKYga+GKgCKgCCgCPQqBRAwcrfjBu9pSD1zzI4hf/e5bF/tP6/+KgCKgCCgCikCvRSARA3/1paXy5uudZQFvwcfL5bp/tsjy5WWpTitRBBQBRUARUAQqGoHYDHzZspXy6P1tQgBbuWjKo0vk9ZeXlqs6rUcRUAQUAUVAEahYBGIz8CmPtMsrL5ZH+7boYUqf8siSTKLdbR16VAQUAUVAEVAEegICsRj4Z5+ukJv+X6usKHNgODuXz5zebpaVlVdw6AkPUtuoCCgCioAi0LsQiMzAlxkLNoFrWS0bC4K/s8OY7u9rUy08CCj9XRFQBBQBRWC1RiAyA5/72lKZOS3bZWNBiL86p1MmGxO+kiKgCCgCioAi0FsRiMTA8UFPf3yJLPike0PBV5jqr/vn5/Lxh2W24ffWUaL9VgQUAUVAEag4BCIx8PnzlsnsJysnocoDdy2WDmNSV1IEFAFFQBFQBHobAqEZOL7niSZwrZJSmj5lTPm6rKy3DVntryKgCCgCigAIhGbgkx+GWVZW9HfLohXyhMmTnvYWpjo0FAFFQBFQBBSBSkcg1Hain3y0XB5/qK0i+zJrRrsM2aBG1lon+Z7hfUwRW29XK03NoeWaisREG6UIKAKKgCKw+iNQtdJQqW6SuvT+O9rk9omtQva1SqTqmiqpToHnVpkyDjuuWQ46orESu6ltUgQUAUVAEVAEuhAI1MA/NRHnjz3YVrHMm54sN4JFWnHxN1/TIrvtUS+D1kpBIuiCWb8oAoqAIqAIKALpIhDIperqq1IxT6fb7GxLu+X6Fk0Uky3EWroioAgoAopAQgQCNfB+/fvIqL3qZd7rS032tco0offtWyV19YGySFGoOjtW5C1He3Zmh8x+qkNGGk1cSRFQBBQBRUARqEQEAhl4VZXIzrvVy4yp7TLnucqKQgdQ2nf+/11DhmwY2JWi+L/39nK56P8s6Pp9SRsJa9pl6+37CgKMkiKgCCgCioAiUGkIhOJOTc1VcvSJzVJrNN1KIoLO9tinQdY3zLu2tir2Z+imNTJm//zAtTkvdJqkNZUnsFQS/toWRUARUAQUge5DIBQDp3mbbF7rMcvua+qqNQ9as1pGj22QGsO8k9KY/RtkncG5pWgkrrn3tlZZ3FqZboOk/dX7FQFFQBFQBHo2AqEZON08/NgmGbpJbcX0eOfd6mTzrdJpz4bDamT3MQ1SnePh8tGHy+W+OxZXTH+1IYqAIqAIKAKKgEUgEgPvN6CPp/Firu5uqm+okn3HN0qfSD0o3mrKGTm6fpWI+0fubZOXKtD3X7wn+osioAgoAopAb0AgEvuDyaH1bmzM6d1Nx3y5X57JO432DF6/Wg45pjmvqA4TeT/lkSVCYJuSIqAIKAKKgCJQKQhEYuA0eo1BfWTcQfkBX+XuzPY71Zugs4ZMqt3dLJnbdoe+XWWTp+5Fo4G//KIGtHWBol8UAUVAEVAEuh2ByAycZVu77F4nW2yTY3Ll7AWm87EH1Of5qtOsn3zoR57QTwYaQcVS6+crTEDbYpPxzZ7RoyKgCCgCioAi0L0I5LhUxHZ889wBJt2oE/EV8f44lyM8bDO8r2y6ZbYm/A02qvbWvrv+9bmvLpVpj7XHabbeowgoAoqAIqAIpI5AbAZOQBtrp6uryxfQRsa1Aw5ryjy5St+6Ki/73MBB+QLKzde2yLy5qoanPgq1QEVAEVAEFIHICMROX4Z2OmJUnTxttvN8+42lkSuOc8OOI9NbNhZU/6Zb1Hp+9ttuaO26tLVlhTx6f5uceFo/LwNc1w8xv5CIhoh+LAs9lZab7epaWlqEY1SqNmv2+piBVFNDIp5a7xO1jDjXd3R0yOLFiyVgI76uomljU1OT9O0b3m20dOlS+fzzz7vKKMeXhoYGaWyMFp+ycOHCSM+uvr7ew6Ic/UlaB8+X58Cz/vTTT+Wdd96RTz75RNra2rxnue6668paa60l66+/vtAv8CsH0a729nZZsmSJfPTRR/Lqq6967xDt7N+/v6y99tqy2WabycCBA73nybsRh/zvZpWZaAYMGGCUrnzFJE7Z3LNixQr57LPPum6nfNrP+5w18VzB8OOPP/Yw5Pjee+9Jv379PPyGDBkifHimdXV1Zo7NbpJdtmyZN6bAgvHFOGNOpM4111xTBg0a5D1P5g/eT+aTtCgR0uuZqO3d966X+W8uNZNhWk0qXM6aa1fLUSfkR4gXvjK9swTrTZu0RD58P8ecnjE50knuwiYvSYky9t6vQYZtkugxJG1GovsZrL/+9a+9lyhqQbxsvGBMWLxsW2+9tWy44YYybNiwqEWFvp5J57777pMbb7zR7LAXzprCS3fmmWfKnnvuGbqel19+WS666KLQ16dx4dFHHy0nnnhi6KJgIN///ve9ySbsTSNGjJDzzz8/7OXddh1M+qmnnpJnn31WZs+e7U30hZ43zIzxt/nmm3vPd6uttvL+T3OSdUFYsGCBTJkyRZ5//nl58cUX8xigex2T/8Ybbyw77LCDjBw5UrbZZhuPEbnXBH2nrj/84Q/y2muveZfCWCdMmCBbbrll0K2hfn/zzTfzxgLv8sUXX+wJRKEKiHERz/CFF16Q6dOnC+8Yn2I0ePBg2W677WSXXXaRHXfc0ROIil0b5zxtQfiaMWOGPPPMMzJv3jyzp0ZHwaIQxpjXRo0a5T1ThMYoCkHBQs3JxJxjT5PKFKb2SoZR2pjpDzy8SdZeNx3JsRgY/vMNjVVy3Cn95YrLFnYtI0MLn/1kOr5w845KH/MZskGzeZjmSw8kpPzW1tZITMB2EykVmjt3riet3n///bLGGmt4k+lxxx0nm2yyib00tSNaDhO6qzkEFU7/5syZI7vttltoKwEvt+1fUPlp/Q5DjkJPPPGEp7VEuccyQ5hepdKsWbPk3//+t8e4eN6liPH7wQcfeJ+nn37am2QPPfRQ2XfffUvdFvm3zs5OeeSRR+Tuu+8WGF8hYcItFC39jTfe8D6PPfaYDB8+XL7yla94gq57XanvaH9Dhw71xru1Nt16663y4x//uNRtoX+bNGlS3hinLqwaWRHKws033ywzZ870NN2geuxznTZtmie0nHzyyZ6SkIZwhrY/ceJED1usKEGEpQsmj9CGYLHHHnvIUUcd5VlEgu4t9XtiXb6xqUr2GhfNbFeqQYV+G7ZZjey4S3jzZaEy4p7bdsdaGb5zNruSYbWYMaVd3ngtnCYYtw894T4mGCZbXtJHH31Uzj33XLn99tuLSrRx+4RZm4kxCtG2l156yRNUotxXydfSp7vuuityE3lGTKCVSFhXYJK//OUvvcnSZd5otGjbaD18MEujkXLeElo7zxmL0pVXXikw3TSIcq6++mq57LLLPKHCZd7UTzvcdvlN3Jj/YZZnn322p3FaZhzUNspB+3QZ1pNPPpnHdIPKKPY7wikCoEtHHHFEZubz999/Xy699FLPeoaZ2hJ9AzvrAuGIydzFkOeK4Pnzn//ce75h8bN1uEfuxVyPpQGFw8+8aQ9jyz5P/xjD9D9//nzPAkh/6EuS9iTWwNsWm5zh/8n5id3OpvWdJCqtLStlzW4Q+hctXCFvGxdBVtS2eIX858ZW+f6FA4XgOaUvEMAU9de//lXQpr72ta95pvU0sEEC9r90YcpFa+LFxUKwOhAaBMwqKqGxvvLKK7LffvuFtkZErSPO9TDF//znP3L99dd7/khbBhM5pugNNtjA08Kshsj1aEVYfzB9vv7663mxAGh6H374oec6wU8el2C+MO8HHnggrwjcMliYaNuwYcM88y7MHCsK9dIuJvp33323q10wzZ/85CdyzjnneNYgmEMQobnjg2XsQpT/8MMPy5FHHhl0a8nfwQvLlCUwwtSfBfGcLr/88jxzeXNzs6dN4/LYdNNNPc2fOBX6h+sA/DC1M8atJYxyfvGLX8gFF1zgmdbjtJX56C9/+Uue5YrnxrjCLG7dgDBxGDMKw1tvveU9S1wZblwMLp4f/vCH3gcXiStohW1b8AgIKOnxh5fIe/PzNcgNTF7xDYfGC7ygOszUz8/K+RLef3eZPHh3m3ztu/0DWpP+z3fetFioP0t6bU6n2a61Q/baNxtNP8u2Z102/iWY+be+9S3ZaKONElf3+OOPxyqDgJnJkyfLFltsEev+Srtp6tSpsZrEpITfD/Mk8QqVQpiZr732Wi+wybYJM/8xxxwju+66q8fECgWpIZAg0CHY3XnnnZ5wwv1o82CEGfrrX/+6LTLSEc0bM6ufeeNvx0XEZA9zdbVFWwHjDYyxKOAOsAQz+vvf/+4FQ+200072dNEjjOSkk06SP/7xj13XoIXjJggjAHTd5HwBs+eee66LMfITAh2abxaENQSftyUY9amnnipjx471gtbseXvElL/zzjvLwQcf7GneV1xxhaDBQ7jO+B8rTaHxYMsodEQoAHuEX0sw3fHjx8uBBx7omcYJEixEixYt8t6bBx98UNw5iGd81VVXebEoCABRKREDf//d5d6+2ead7iIjjMi3fjBQ1l0vvr96wcfL5c+XLJf5875gnCtXiDzx2BIZf1ijIByUi+a+slSmPhrNrxi3bXdMbJWNTN+G9uCAtrh9D7oP39E//vEPz3cXNcraLTup+ZfJ9IwzznCL7JHfMeOBaVxiMoTpVQoDJ5Dpb3/7Wx7zZiI977zzZPvtty/ZTZjneuut530wN//qV7/qwgYtHZ8xGt64ceNKllPoRwQAAiZdQuvGRB/EPDAFDzOa+emnny5jxoyRCy+8sCtuAw39uuuu89pF1HcQ7bXXXp4Gi1AAodXjRoorjCJEYIWBkUO8kwRnZUG41PBhu/SDH/xARo8e7Z4q+B1GT+ApWjpBqDZGBIsLigECQFiiz2CONm0Jzfuss86Sww47zJ4qemQ8IkjyWWeddTxfvr0Y4fGWW26Rb3/72wWFOXtdoWNsHzhMdfaTHfLu2znzshFGTNBXv0TMm0ayTeje+zWuYlL+1+Wfy+eLTMVloMWtK+TOW3ImoqyrXLhwuTw5rV2WLXWkoawr7UHlY2667bbbErWYAKIkhGkuLOPDB8aLGvThxWYiKEVMkEHl8HtY4QZNwmokpeot9hsTIRpYJRAmSUznrr+bIKEJEyYEMm9/+4kUZkLGnOkSwgGaUhRC03NjONDUmLzDMG9/PQgQP/rRj/ICxDAPo82FIczNe++9d9elmJIx58b1vSIAuO4XBA0sCVkQJms3shuGHIZ5u23BvM8KDUsIMq4AYs+XOmK1oC2WwBSGG4Z523vskWBE2sMcYYlnSaBsVIqtzi78bIVMNuZzY2nqoo02rjW7lSU3A7M+etfRdTLFaL9vzc0JCG+Z9eZsLHLwUU1ddWbxBYsCwslrc3J1Z1GPW+YKI8zOmt4uu4yql403i/1Y3CIr5jtmyP33399bI0qjeCGZeK2vCmaCyTKI0IaQ9JnQohLaFMt3khLBRCxJCSImtTDLrVjmdMMNN5QMmGLCwhwYRGEmUSZttAg3ECio3EK/E8B02mmnFfqprOdgrGBoxw9jDXcL5uk4hPkVkznauw1iQzggYIko5kLm7kL13HvvvZ7J1P7GmKVcJv44hCUBUy1uAqv5YlonmhmBJYgQHhi79In3DwFsn332CS30ueXjrrDaPHjgZwf3LAgNnHfXEm2OQ/jnraDHO0BMAIJo2Odxxx135PUZl0Ecqwxth3HDwHFFIYhBWMWwMv7mN7/JY+zejyX+xOYUN1zVIh99kAO21iyDYk1zc7/YSn1eM/v17yOnn9VffvrDBV3nsdjMmNxuItLrZMiGsZveVV6xLy0m9/mUSe3SvqS82jD7j99jcq5/+0eF/SjF2lvp5zHzMeCtj4cXyH6YjNCu0XKCmAoTKWas//mf/4ncZSTuqFpUoUpYv0vwTtCLj/nOr8kVKg8hJkgDR7sOU1ah8v3nmMCJyGXCSEIEWBHYRxBWdxJmandJIObiML7hUm3G5HrQQQd5GjTXIRwwfnjuxXyc/vJg+FaoQPtm/CdxOeDLJsr7nnvu6QpIw6+K3x7zcBDxnKgf6wuE2RazcFirjVu+a9LmPUCoDivYuOUEfWes0kbmCktxMcRdwNxhy6K9YBqGEFZhtpaYz0444YRAN4i9vtARqwACmWXgXEMdWDeivFOxuO0Lz3TK00ZbdInMZcN3JuONezbZd/zde41ryCuTgDKWXmVJs2Z0yOsmsKzsZMbpLJPZbs7zySbXsrc7ZIUwKj5MaLxABNEQ+IJZDNMiTCqImeG7c/1QYarmpcXkZ31ghe6hXjTrIL8gloM4pq5CdXbHOTBwJ41CbUD4CNKuwdQNripUTtbnmOBdtwgWCKwVYSfmUu1jjS7JhWBQfHjuQQKmLY9YCfzUlpisYeBJCWbLc+H9sYRLh7YFEVHSJHCx7xd9wQ8clWBmLg5gjtUiC0JT9QsYaORxiH7bpWbEH1C2xaJUeSgYWP4s4+daxgbulqSEWwPLjB1jvHdRXVO5kRCyNSwbe/S+tlWu3nd8o6yxZuTiVinHf+KAQxvzErighRP5/tmCYJOrv6ww/787f7ncdQtpNsNcnc01N15tJouPTEd7ERFIhG8IbbMUoW25/rdS19rf0JwIdCqldTIp8kK5k5y93z1iBYABWjOm+1tP+M6E707AhdqMuZGALjLllSIYQBjmUaqMJL/5lzINGzbMe35JyrT3wnTJUmc/RD2HTV7jj5PAXMrknAZhYaCfllimRlBWECHUkNXN9bs+9NBDQbet8rvf707Cm6CAvFUKiXACzF3tHgsEglu5CFO7G3XOc8QdmAbxLAjIs2OMI5njolAkjgtTm22yrvn3xt7EaN877prNEoL1NqiRMQc0GKkz163PzdrsP12yMHcixW+syf5sQfcyz/ffyd7KkCJkqRSFNIwvLci/jf+OABw3sCWoATAsJvtSxCSB3xTzaynJHLMoZXUn4yrVj6Df8M0GEQwcBoYpuRSRIAOXQncRvliXYFBpLWXCOsRkikbPBx9ymIhvzNr+REFjx451m5noO4zYdREgnOLKCEMIZW4eA94ja1IPc//bb7+dZ31Co8WsnyVtu+22ec+UQLJrrrmmbEwcjFzLHVY6F8OkfWdVgh1jHIPmP399Dlv0/7Tq/0RmT35oSZ5vuKm5j3zz3IFGSlr1+jTOmHnd+LzrZUMTIOcSG6hMNX7qtMgTTkzg2ssvlE+6K9Z2z9dv3ATvvJWLMSh27ep0Hi2YoJwgIujNfamCrkdDcU2aha7HXIrvCSEiiAngq4qTDKZQveU8h78dX24pwsfLJIWmgaZXSpihHNKPWl9vqXKz+M0vPGSVSCRK22HgCDaWmKDTMLfa8ji6QiZWJcZiGIsQzxQmbgmzMFkPwxKWJzfaH2uAq9GHLSfKdQTvIZhZYqxh0sblxliOMg/YMqIc0b5djZ/5oZIoEgOfNb3DpP3M+WfRiscd3Gj2BY9UTOT+Dx5SLeMPXzVd6+MPtaVmaiZ5zJRH2oXMaJVAaOFP9ML9x8NstIBGHUUDn2Sib4PILjPBH+VOGIXuI7AmyI9c6L7uPudGDxdrC8wBkygaKNpAkHkU7Q8zbrmJyGTXtEn9YaKxs24nWNgIberCkpE2MUbd58KyMJfJlKqP4Cs3RgA3COM5iKy1xbqhYNxp54sv1gai993YFIQVVpRMmDDBy4pGIB/jMCwGxerxn0dY4Hm6UfBxg+j8Zaf1f2jO+/milXLTNWwbmXMOrzOYHOXpBq4V69iI3epky21z6+a47k0jTDz9RIfRAIrdFf78MzM75IVnc9nfwt+ZzZX0ia1LF36aQueyaWImpeILDyK0HDuRBF2LhO6u3yx0PRo3JlJLYZZsuZG49r5KPoJXEA5YQNjG0mpVfA/ygxM1G9aEmyY+MBQ3sAizpsvU0qwrSlmMTVe4DDOeo5TPtZiuXXM+WnHY9wGBwjXBE1NCRHoQ4Qt2145jsbKrSoLuTfo7GOIrJruaaxGi7fjxWX5FohuuYTULq1rSsAohKLjPkoC6NM3nSXHh/lAMHJPuxH99bkxDOeaN9j1yz/qyZQ6rrqmS409pln4Dck2mXawVJ+BrkVmXHveDz/u+29sqLolKR8dKueSnn0qnOfYWstHppfrLi+VO3qWuJUo5aHLDdO6+mJhigwKWmPTiRsSWam9Wv+FGYOlXKYJZk67WRjmTPzzIJ0csABN7GhNmqbb5f0PrdMdA2OVdthzai2YV5ePWZ8vxH7nGvc7Vdv3Xxv3frt6w90fFnlUf9hnD/FlHH/SOEARqxztMlJ35wuQdsG1MeiTSHSaNpYw152BgCc0b9xDjkLXe5IsnhS7MHEsZYyUqRpRNua7LgLnJ4mbrLnVkHEQZX1wbxhXi1plDwT3r+/7Gq0tX8Q2jfe97YIPvymz/JVHMmP0b5O5bTZT4fxXT94yp+X8vXWiANc7ymASj/CDjfOcxmyYLjHAy3ax9Z419byEYibu2199vJpswLyQvBPnLg4gJzU+Y0YOidPEfnnLKKf5bK+5/JhL89kxkpQihBZ+tSwgzQdYGNHsmVjTDcpF/oouqfaOlIYS5zDao7cRnBAX2+cvwL4Py/57G/1iZGOthiWBN3A24IOg/OGAqthu9FCoHvCzxfrLk02Wi9rcsj2DJmneiwMknzpIr/OCFhA8wgZljXqe/rDDh+SVJOIOlLgoD530jla4bExGED8+AvOphBb9ABk4yE/KBE/nt0pFfyteG3d+y+t7HBMrtPLJeZk7rkA/eyw1YmzM9q3q7s1ysDFMnLZGtt++bt5yuO9uUdd2YIUsRgzvMi8R6cas1FCsPzY1IVz+FYeDs6pTmEiF/G9L6H58sGlSQj5D4A/8EFyYwjLIxsZbTP+h//kHCiR9LAuAIhgojCNp7/Wup7flSR1eDK3Vdkt8QXtylVkFl0Q+CsWwMAS4QgjyLMXCEaZeBE5QXJlYlqB1xfye4EvP9IYcc4o07BEisCHz8hKCHFo4Ayxr273znO7FN/7xHfsHRX5/7P9YpN/GO+1ux78xFxBaEZeA5e3SREkmZ+szT+X7mIWZp14jds1k2VqQZXac3ZMOPTQPljq7rV4cvWEDYWKU3EC9I0KQaVhJm0nEDigrhhy+vkCkQk12QGZ0XNMoynEL1l+McTIR2BmmbRPy6PkbaBjZBkbdof+SKLif5NW7XV1nOdvjrIn7AZaZRJnx/WcX+T2rapY1opdZiggbr7pDlrxfG5+K7++67px5Z768z6H8YHMImFhF2W7vkkku8DUJg0IxXAv2wENjxDGZkIGT7TtxJYYg63PX7zEtBc1OYctO8JpATDlyjjxeohhZug8UwWz9j1oPvbALLyk1vv7lM5r2e077LXX931LfpFn1ls63yl9F1RzvKUWeQn5Y2YMILklBhWqzXLjWB8nLzoqN9+LV+/scvjmZZjBAOZs6c6Wnw7qRd7PruOs/63TDZ65jY0VT8xPaXQRmi7rrrLm+LyqAleP6y4/7PGLCTM2XY6G/LlILKxfKCj7+UUMMa61KunEJ1MOHbIEB+LzV+Ct0f5pyfgYd5H/zloukxvu2mNkSjf+Mb31jlvaIu9ka3BFOMm4/clpHVkXeZbVIxQbMWn4Q6WFo4WhcDz5OtRC+66KLAVQu80zxLxhnjBFN4FEsP92IpKDUmKTfISlgKr0AGXt9QJbvv3SDPmf25CRKzNPFfLbLO4GrZYGhgEfaWxMdly1Z6G6h8/GE+A99meJ0MMIJGXGo1uc+fn105EehuP1hfP2rvellzbfOlF1DQOmUgQPJ2J8lCsGAeDErewstDWtTf/e53qxTBb0EvK9I4mi3LcNJe67tKgxKcYMlNKUHGFs1ex4UoyIrBPTAC8C7kjihUZtJzaOAwIDe/PcJHkLXA1ktqUwKxeM6FiPMkvWFHsShEm9wJ25/UJUpZxa7150FAGAl6H/xlYXlCC7cMHEEDYRTt2iWyHrpCCMltMGFXMiHcY+Jn6dkBBxzg9euyyy7rsiKwcgLTNpkfS/nxYeDMNRytAID2TjR8GCLi/3vf+15BH729HyGR6Pm4FIr7brltrWy3Y1/jC88lTmHP7sdMUpeTTkcSjlt9tPvenb9MHnuQ5SO5+wavX+Nt/oGgkYTOO+sToU+VRkM2qpWxJhNdbyAYoj85R6F+k27VnSQLXcNLGpQylPt4gfjEJfyHTIKVysDpW9hkHS4zjIMH68zD5LOPU3ahezCfum1G+AvLwGG0fIpRocCoYte655m03cA1xgauFnfZl3t9nO+uUIDFA9+1PyYgqFyuJ6c3edstsQELG5NYywZCDOZzy7w4H2f7TFt+uY+0l2dM0BtCzoQJEzwTOMKszaZYyH3mtpNgPwQCi0GUfRC4D0GpFAUt7Sx1L7+FVltP+Gr/PC0QJsqmJnONf7YctMQsYbv27615zLu+vkoOOqJR6swxKZ1yZn9JKgQkbYP/fnZk++a5q9fOZP4+2v+ZLPBR+fNI29/tEcYNkwhi4K7ZzN6bxRHTLUFclUrgkHW2Ktt3tLWoJmd7b5zjmDFj8m7DDx/GWpB3U5F/mLB5tlEJ5u0mHeF+tqJMi+ifuyoAk71/5UDYunCNsGzQEsFerjnXpiC2VgqYWdRc3bbs7j6S08BtOy6lMGMVfNy5BleD392WpG9hXFulyg/NwBubquTok5qlztF0P/kIjTjnGy9VUdLfHjfa/huv5ac5Hba5sQzslE4iGfK5b7djOmUl7Sv3V1dXyf6HNAlZ6HoDoUmx3R/rOUsRkjQTTymyvulS16T5Gy91JRJMiGUs5SKenasdZl0vpkxXi8bXH8aCE6ZdxEUECZPFyvGnA8ZcG+SOKVaW/zwaMdYlSyQ5icvAKQN/sSXeG3csw8zB1BLJjlzrgj3fE460202qQ4wM/v0gYmWFiy/3sHohDaINt912W6KiQjNwamHDku12yAWurTAW52lmidPHZh/rLIktRCebHcj8NP7wJiHILg1qaq6S0WPqpbEpnfKStmmjjWtMopwc1knLq9T7eSGY4IgeRYOz0n6x9uJ/C9ovF19oGPN5sTqinmeir8Tc6Pgu3Qk4ar+iXo9GwzMM42+PWnah6zEfu/5INCP8/Wlo4ViDwqQYLdQu2uQyOnAhyC8pYYr3b+GKy8DVEKPWgbBhzcgIfAhA9Jv3kPXhFgMCxFhaGRQ8GrX+UtdTP0K9/SBcWFN2qfsK/YY53XUz8N26Cgpdb8/hI2cNuUsIxXYJnns+6nfmqaTzRigfuG0YJuvRY+vllRc7hdzhln7388/kwl8NEky+adOypSuNkNAuH36QH7g2Yvd62X6n/NSqSevewaSF3cEIKdNMxH13Um3fKi9xy9rrrh7aN5rZDTfc4EV8W1xZlgKTJQgsjCmL+4i2/fKXv2yLKHiEeUycOLHgb1mexJdInulKIpipnYDL1S4mJUz2TPjloPHjx3tBStasOXXqVG93JwLU4hLriRmvSeirX/2qlwmMuA6YIcu0WFPvN6+HrQOhhMQkrkAG47U5/MOW47+OdwrTsl1GRpAW1gcEEFcbJ+4EM3Q5CYHl+uuv7xIIwQ/3GW2OSmi7ruWC/oUN/Bs7dqzccsstXdgTV0Jk/hlnnJG3zCxKm2DcfmEsyv322kgMnJu23KavjBhV55nObSGkMp30wBI57Nh09ry15XL84L3lHgNH27c0cFC1nHha9Ido7y91PPL4JnnR+PYXfeZUWOqGDH4btmmtjNyjfFmtMuhCXpG8iCQ9SUonn3xy4ASIUFAooYO/bjSXoAATew+BakHR8aRsJX1jOTUU275CRywbaDBB2ihRtuw+FqbdCFrupF6oXoQGGEC5GDjmTXJ7E0AHo2RyJYUm/XG180JtLXQOs/GVV16ZeLtYJn2sAXb5Hcsjr776am8dstV4C9Vf7BzvD2PMtW7wPsRhZm4dMDI06+nTp3smZaw2BHih6br+2UJJftxysviOewSXmY1FINYEV1ucPiNY8rFEsKG7xtueL3TE0oNwzmoVcOEZkOGRJWK881GJAEkyxPF+JqXIDLyhsUoOPaY5j4HTiBkm3Sca7EYm0UqadO0/W2Shj5keeJhJKj8ofW2fdrNc64RTm+XyP5TOBpZmH92ysHKcdlblBdS5beyO70THsvQniEjeEmRm48UlJWOQKd7WhVZ38cUX238LHplkYPJuoEzBC8t0Ep9rmOQtTN7nnHNOKHMifQxi4KyVRYAKyqFuYUDQwAUB47calv0tzJFnydpflkDZ1QREfl966aVy3nnnecJJmHK4Bib7+9//Pm+iD3uv/zqiztkrm5gA2oVwgVn+/PPP97bCjLJqAfP75ZdfnrccCaGrUApgfzuC/seMjGZNe9AKsRggeBBtzbOxxF7VpZZc2esKHRGqYXiYrVnW5U/CU+gezuGzZhxZBo4iwFLHn/3sZ3kuimL32/NYABHqrDBLn1nBgPAaltiGlQ+CDoRl66qrrvK+R2HiWKcQ5HimrjDmFRTjT7UJrZ8Q9T6YeG1NH3l1TmdXTnJM6nV1fWSr7fqaBxW1xFWvN+Pd07wfvie3ty5XEWx2yNFNwj7kWRFryue/tVw+ydi3728/qWLHH9ksu3RTljt/e8L8j1aG9oOJKitisiLJBFJzKYJx33TTTYGbdrD+lYmEyZ9JJejDCw/jCsppjGYFQwzjW7P9wCRKVHGpl9m/J7K9t9SRjR0w+zEhFyP6TRYrBJkgDPgdvGBC7rrgQmXzO6btoOQ2jBkSamCuJgKacYRZkyBF6gtLmHdhmLTN4shEaf3h/IZGzsf/bHDlwPC5lj2mbRQ219EWFz9rAveXUaydLO+ifDRHGDiEqX/SpEmeFolmx6cQY4RBYPlhsr/xxhvz2kFk9FlnnRU7Jai/vTBvBCibRAn/LsKfJcYHW3pGJSu08Ix5tghZLGkkV0AY5olvnzLYc94+V4QMrBok4eG5FsLOthOGT508V56xJeYR1oAzbsISzwmLHTEClAsxNhhzjF3effs8/eODtvNOcB3r0RFm7HhAmKEc+z9tipJKNba6vLfZVOSl5ztkzvM5KW3GlCWy5z71sv5GsYvtwvODd80OYXfkM4VqU+yuo+tl7XWy9Q03mUC2PYyvf97rS2Vxa/EJsKuxKX0h4xr4KX2BAC8nQTaYCsPk2WbiCQou4eXC7BrFDIcZb5gJnivFuHgBmQSZoKNoV1k9a5ZUBVkimCDxKUYhlm4Fmf4QSmAAQRt/EDfABGgJDemBBx7wgoaChDV7jz2OGzfO09QQ4OyyOcqD+VEPQgHPkEmfZ49WDJNkvGAyhnFbJkGZuFhgEg8++GCeJmrrC3NkQj/++OM9oQGfqX0eaKR//vOfPYaA9muZEdcj1CAUY74GQ/+Yg1Hge43rSy/Ubt4zmAaWpkLkRqoX+r3YOfqCpolLxRIMGIHtpz/9qT1V8ojmz1hGALCEQETqVARbhHEYKy4bPmDHhzGIyZx30h8Hwvr3oJUsti73COZg/6c//akrbof3HgsSz4pnyRizAiXjCe0fCwICNQKSq+ggxDC34ef3P2e33lLfY3Pa5n5fBFqRo7uz87/SpcnU9o8/L5IJvwlvmijUOKNIyfQpJnDN2bCE69gBbY+xDVIVXjgvVHzgOcpn/3F2AXvO5IEvB/WtM1v0me1Ze0vGtSBMmWjZ6YuJ2Y3oLXUfGosbqFLoWpgWL1oYn6+9HwbOREHSBXeSt7/bI1I+9VcCAw8Tc4B50l2GZftR6khE7jXXXLPKpOi/B2YQxMALLTkDQzfvtr/cYv/zPI877jgvqQnmUnfShmnwwfyJZo9lAK2HZ1noeeJTv+CCCzyXCNYR15RcrP5i57FaEHjJGEKbtn2jzHkmYIwP7eFD22gXjJ6jn2AgZ599tieA+rU8/7VR/yfoD23QCj/2foSdMK4re7175BlY87d7HmEJa1aY95o20WfIMnGYJgwPwQzLCc/e4sfzBD/w9T9brsNyQWIXro9DuPJQJn772996bgZbBn1FGIWZIxBRPu2kLf52cA9r6s8991zPGsG7WnYGTiOG71wnw0fUycwnchna5ptc5Q8Zs/cWW/flklhERrTJD7eZjudu72sis0/9Zn9jOq/KnczwW01tlRx8VJO8ZtwEJJHJmrY0eO1uUqZWlad7WXcncvlMSFaKJvjo2GOPzVu3GVQgLwrSdtBki2AQVXuhbTA7JhyXMfjbxEuIpF3ObGT+NvA/ZkMblV3od3vuoIMOWsWkbH8rdmRCRXsJyiAFs/zSl75UMpiNtJ1o3HaCA+dhRoOhjjjEBI3AhwaE5m2zbTGRQtTDp1iWNZjs2LFjPa2IsUg7KDMpUcbhhx/uTdrXXnutZ8513TG2XYXqgakjECJUoK25a5kLXR/3HEwHXy7tc8kydvdc2O8wfxgVsSH2GXAvLoAwzNvWw7UwcRgnW/y62fd434PeefoGbvQvCfOmPYxRLCbEMhBFTswNWrYdw/ST8VVsjGFlQRk47bTTvHSvCGpRrU0WF46xNXBuJnPZvgc1yqwn28WNEr/xqpbEjMgvgI402unmZd7Qg/oOObpZbr62he5mRl5g4HFNFZcJLkyHkTQZgAzsKMRLyeSEhsL9vOgwSV7SMOZyf10wcCR7yilFMB+iR6MS9zHx8LKWIjRIXsqwEj4vNAyn2AtPXQgdUYhJJQgHLBFxgqBgRgTzBLkqYH6YDJmsihE+ZQLQ8AnjV8S1wcSW1IJhTatoRPhP8ZlixnXNl7ZN+Lmpl+BDfLMjRozoWl4EQ2eyZpxCjNWo49zWw3hAYME0TzIWAv0IFKNdhZ49zA9LEcImeIMjjChLwlyNf9ZaCcCGc7b/UetGCMIqAu48CzAA39NPPz1qUR7DP/HEE4VkMrQRoQALTqFnagunfuYUxhmac5z33pblPxLf8N3vftcznRMfw/NkvBeyOHAv4wjBnueIG8oKMIwn5jv7vmJWDzt3UG6VkRgSqZcw7huvbpGH780PNqPwtGjQWtVy1g8GyCabJ5eGo7apxWx08odfLJR5c7NLGXvCV42Z6uDGzF0DUfse5nomHyKerQQa5h6usZMRR5gYn7gTBeUxjDGTBg1nGFccBkG5MG8EhVJEPyg/7ESPnxZtuVS7mcxhHmEJH2tQO5kkgrZLLVYf2qMN5Cl2Dc8SwQO8SxH9t7gyqTGBJRkH/rrQzmgr9aC5McEyVhFEcB+AARM9bbVj0pbBdfhTLZYw9LjWAVsmR5417cGagy8eYQhMOUdbEGjBge88d3+73LLS/I7g6WqTPAfGMow8CTG+wZ1+I6zSryTE8wA72srcg9DMd7CkrWjbtJvgO+riuYV9H+O0i3FCe+x7wfOkjcyNPEs+vMPF3gfutYII7Wdchm1vYgZunoncedNiuf3f8TeECAKNtednnj1A1ljzC0k46Po0f19qEsnceFWrWeeejYCy0ca1cu6FA6X/gPL3LU2ctCxFQBFQBBSB8iKQ2CbDDmH3+6LF0+7CG68t9aLdyQJXbvrQJJJ5enrOx0/9+MdrzScpYTo/8PBGI50p806Kpd6vCCgCikBvQyARAyf6/NH7lhifSSIrfCDmaMF33NzqbTbSf2ByxhlY4X8v6DT9uu6KFsGMbolc6UedaHwrZj16UsKltZZZEpd1VH3Sdur9ioAioAgoApWHQCIG/qbRjJ+b1WF8G9l37OMPlssdN7XKSWf0Mz6y7OujT5MfaZdXX8qtc6fWzbeulVEmWrzRaM9KioAioAgoAopAdyEQmxUav72wxeennzhrvTLuxVSz89nrL2cXTOY2H9fApPvz/d6s1WYHNGXeLlL6XRFQBBQBRaA7EIjNwN82671nP1WeJCcWmKXGZE+0e8uinEnb/pbmkR3QyO3+wfv5Ecfsz71ZmZeypdkvLUsRUAQUAUVg9UEgFgNnjfb/XrpQOtrLYDt3sMas/fzsDpn3RrZa+Dtvf7G7mru2nWjxo08id7bTIP2qCCgCioAioAh0EwKR2dFKw7zvuXVxWU3nLjYIDXff2paZ8EBg3u0TW6VtcU7Lx2R+wGGNbjP0uyKgCCgCioAi0K0IRGbgH5pgspnTy2s69yM099VOedTsP54FPXLvEnnx2VzgGgnGttmhTnYwaWOVFAFFQBFQBBSBSkEgEgPHdP7UtHaZPy9bE3YQOJi2b76mRT75KN0AOrYPfeQ+crDnXAN1Zn9udl5rLFMO9qC+6++KgCKgCCgCigAIRGLgH72Pbzg/Mru7YMQffusNramtQWct+/13tclnC/KFgjH7Ncq2w5OlEuwujLReRUARUAQUgdUXgUgM/P47F8vCT3O+4e6G5WWzF/ncV9OxBrCL2uwZHWYjilyvNt6sVsYfqb7vHCL6TRFQBBQBRaBSEAjNwF94plOmPpqN3zkuGIsWrpCH7m4TlpclpTtuXiyffZrTvmtqquSI480mB5qjPCm0er8ioAgoAopABgiEysRGKtG7TeQ5yVsqjZ6d2SEzpnbIuoNDyyKrdOFds2zsxWdygXmkNt1ptzrZePNQ8KxSnp5QBBQBRUARUASyRiCQQ+FrfnZmp7z9Zjqm6iw6dNVfFqVabHNzHxlrAteadZORVHHVwhQBRUARUATSQyBQbUX7nj55ibQvSW6mTq/Z2Za017hGk/NcA9eyRVlLVwQUAUVAEUiCQCADh3F/aKLPewutvU6NHHpMo1RX95Yeaz8VAUVAEVAEeiICgSb0QWsac/IBDXLXLYuF7TUrkdhXu8mYvZNSnz5VctxXmoW130qKgCKgCCgCikAlIxDIwGtqq2T02AaZ9pjZ3OPd/M09KqFjtaZ9Z3x3oKy/YXKVmaxrg9ZKXk4l4KJtUAQUAUVAEVi9EQhk4HR/jUF95LBjm+SKyxaJu8FHd0MDw93ZRItvt2OtwMiVFAFFQBFQBBSB3oJAaLvzLqPqZXiF5QNfc+1qGbN/ozLv3jJatZ+KgCKgCCgCXQiEZuA1tSJHndAs9cbfXCm0w4g62XRL0zAlRUARUAQUAUWglyEQmoGDy5ANa+TgI5sE03V304CB1XLYcc1SE8oJ0N2t1foVAUVAEVAEFIF0EYjEwPuYq4cbrXfIBt3LNWv7VslJZ/STfv0rQJJI93loaYqAIqAIKAKKQCgEIjFwSoR5j9q7IVThWV00aq962Wmk7s+dFb5ariKgCCgCikDlIxCZgZPg5OCjGmWtdbtnudXANfrInvs0aKKVyh9b2kJFQBFQBBSBDBGIzMBtW045s38qyVNseWGOmPD32KdRhm2qgWth8NJrFAFFQBFQBFZfBGIz8G2G95XRY8prSifJyl7j6oWIeCVFQBFQBBQBRaA3IxCbgaMN7zK6TliLXS467VsDZO1uMt2Xq49ajyKgCCgCioAiEAaB2AycwodubALaTEBZ1svKKH+ESSSz1Xaqeod5qHqNIqAIKAKKwOqPQCIGznKufcc3Sr8BiYoJRHmdwWb9+VFNgdfpBYqAIqAIKAKKQG9BIDHnHWjypH/p1P6Z4dXHWOh3MvnONxjavWvPM+ugFqwIKAKKgCKgCMRAIDEDp85Re9XJyD3rY1QffMs669bI2P0bNONaMFR6hSKgCCgCikAvQiA1tRZTeseSlbJ0Wbp7hu9hIt01cK0XjUjtqiKgCCgCikAoBKpWGgp1ZcBFbDPa3r5SUiquq7b6hj6atKULDf2iCCgCioAioAh8gUBqDFwBVQQUAUVAEVAEFIHyIZCKD7x8zdWaFAFFQBFQBBQBRQAElIHrOFAEFAFFQBFQBHogAsrAe+BD0yYrAoqAIqAIKALKwHUMKAKKgCKgCCgCPRABZeA98KFpkxUBRUARUAQUAWXgOgYUAUVAEVAEFIEeiMD/BwKWAPXbiYagAAAAAElFTkSuQmCC;container=0;" parent="1" vertex="1">
          <mxGeometry x="85.78" y="276.0037735849056" width="187.21962264150943" height="43.56226415094339" as="geometry" />
        </mxCell>
        <mxCell id="0jSy_ca2VGsoWOgGTYAR-5" value="" style="shape=singleArrow;whiteSpace=wrap;html=1;strokeColor=#4DA1F5;movable=1;resizable=1;rotatable=1;deletable=1;editable=1;locked=0;connectable=1;fillColor=#4DA1F5;flipH=0;container=0;" parent="1" vertex="1">
          <mxGeometry x="153.00370549804822" y="479.0556710098681" width="52.77755364586659" height="55.14765163992383" as="geometry" />
        </mxCell>
        <mxCell id="0BnKFGhoWImMdGGhruV1-22" value="" style="shape=singleArrow;whiteSpace=wrap;html=1;strokeColor=#4DA1F5;movable=1;resizable=1;rotatable=1;deletable=1;editable=1;locked=0;connectable=1;fillColor=#4DA1F5;flipH=1;container=0;" parent="1" vertex="1">
          <mxGeometry x="152.00370549804822" y="440.31405744102153" width="52.77755364586659" height="55.14765163992383" as="geometry" />
        </mxCell>
        <mxCell id="0jSy_ca2VGsoWOgGTYAR-30" value="&lt;b&gt;&lt;font color=&quot;#ffffff&quot; style=&quot;font-size: 24px;&quot;&gt;Extract&lt;/font&gt;&lt;/b&gt;" style="html=1;shadow=0;dashed=0;align=center;verticalAlign=middle;shape=mxgraph.arrows2.arrow;dy=0;dx=10;notch=10;strokeColor=#4DA1F5;fillColor=#4DA1F5;container=0;" parent="1" vertex="1">
          <mxGeometry x="390.64" y="187.37" width="312.67" height="55.15" as="geometry" />
        </mxCell>
        <mxCell id="0jSy_ca2VGsoWOgGTYAR-41" value="" style="shape=singleArrow;whiteSpace=wrap;html=1;strokeColor=#4DA1F5;movable=1;resizable=1;rotatable=1;deletable=1;editable=1;locked=0;connectable=1;fillColor=#4DA1F5;container=0;" parent="1" vertex="1">
          <mxGeometry x="511.9898695355025" y="462.1075562185456" width="52.77755364586659" height="55.14765163992383" as="geometry" />
        </mxCell>
        <mxCell id="0jSy_ca2VGsoWOgGTYAR-46" value="&lt;b&gt;&lt;font color=&quot;#ffffff&quot; style=&quot;font-size: 24px;&quot;&gt;Load&lt;/font&gt;&lt;/b&gt;" style="html=1;shadow=0;dashed=0;align=center;verticalAlign=middle;shape=mxgraph.arrows2.arrow;dy=0;dx=10;notch=10;strokeColor=#4DA1F5;fillColor=#4DA1F5;container=0;" parent="1" vertex="1">
          <mxGeometry x="1074.6999999999998" y="187.37" width="143.27" height="55.15" as="geometry" />
        </mxCell>
        <mxCell id="0jSy_ca2VGsoWOgGTYAR-53" value="" style="shape=singleArrow;whiteSpace=wrap;html=1;strokeColor=#4DA1F5;movable=1;resizable=1;rotatable=1;deletable=1;editable=1;locked=0;connectable=1;fillColor=#4DA1F5;container=0;" parent="1" vertex="1">
          <mxGeometry x="685.9890923875915" y="464.60126464029116" width="52.77755364586659" height="55.14765163992383" as="geometry" />
        </mxCell>
        <mxCell id="0jSy_ca2VGsoWOgGTYAR-57" value="" style="shape=singleArrow;whiteSpace=wrap;html=1;strokeColor=#4DA1F5;movable=1;resizable=1;rotatable=1;deletable=1;editable=1;locked=0;connectable=1;fillColor=#4DA1F5;container=0;" parent="1" vertex="1">
          <mxGeometry x="859.5483161739567" y="466.9285129232367" width="52.77755364586659" height="55.14765163992383" as="geometry" />
        </mxCell>
        <mxCell id="0jSy_ca2VGsoWOgGTYAR-62" value="&lt;b&gt;&lt;font color=&quot;#ffffff&quot; style=&quot;font-size: 24px;&quot;&gt;Analytics&lt;/font&gt;&lt;/b&gt;" style="html=1;shadow=0;dashed=0;align=center;verticalAlign=middle;shape=mxgraph.arrows2.arrow;dy=0;dx=10;notch=10;strokeColor=#4DA1F5;fillColor=#4DA1F5;container=0;" parent="1" vertex="1">
          <mxGeometry x="1242.45" y="187.37" width="138.33" height="55.15" as="geometry" />
        </mxCell>
        <mxCell id="0jSy_ca2VGsoWOgGTYAR-7" value="" style="rounded=1;whiteSpace=wrap;html=1;movable=1;resizable=1;rotatable=1;deletable=1;editable=1;locked=0;connectable=1;strokeColor=#4DA1F5;container=0;" parent="1" vertex="1">
          <mxGeometry x="395.99333435528627" y="327.95527296251976" width="115.5586645356622" height="330.8883814614401" as="geometry" />
        </mxCell>
        <mxCell id="0jSy_ca2VGsoWOgGTYAR-8" value="&lt;font style=&quot;font-size: 18px;&quot; color=&quot;#4da1f5&quot;&gt;&lt;b style=&quot;&quot;&gt;DATA INGESTION&lt;/b&gt;&lt;/font&gt;" style="text;strokeColor=none;align=center;fillColor=none;html=1;verticalAlign=middle;whiteSpace=wrap;rounded=0;movable=1;resizable=1;rotatable=1;deletable=1;editable=1;locked=0;connectable=1;container=0;" parent="1" vertex="1">
          <mxGeometry x="392.15999999999997" y="342.55" width="121.66" height="54.55" as="geometry" />
        </mxCell>
        <mxCell id="0jSy_ca2VGsoWOgGTYAR-39" value="&lt;b style=&quot;&quot;&gt;&lt;font color=&quot;#4d4d4d&quot;&gt;Data Integration&lt;/font&gt;&lt;/b&gt;" style="text;strokeColor=none;align=center;fillColor=none;html=1;verticalAlign=middle;whiteSpace=wrap;rounded=0;movable=1;resizable=1;rotatable=1;deletable=1;editable=1;locked=0;connectable=1;container=0;" parent="1" vertex="1">
          <mxGeometry x="395.2133343552863" y="600.029317781604" width="115.5586645356622" height="40.09264222041116" as="geometry" />
        </mxCell>
        <mxCell id="0BnKFGhoWImMdGGhruV1-5" value="" style="rounded=1;whiteSpace=wrap;html=1;movable=1;resizable=1;rotatable=1;deletable=1;editable=1;locked=0;connectable=1;strokeColor=#4DA1F5;fontStyle=0;container=0;" parent="1" vertex="1">
          <mxGeometry x="32.11089830375965" y="324.9741849916867" width="119.99949039481245" height="330.8883814614401" as="geometry" />
        </mxCell>
        <mxCell id="0BnKFGhoWImMdGGhruV1-44" value="" style="image;aspect=fixed;html=1;points=[];align=center;fontSize=12;image=img/lib/azure2/databases/Data_Factory.svg;movable=1;resizable=1;rotatable=1;deletable=1;editable=1;locked=0;connectable=1;fontStyle=0;container=0;" parent="1" vertex="1">
          <mxGeometry x="48.96603335492351" y="438.4181369263052" width="84.63070739327941" height="84.63070739327941" as="geometry" />
        </mxCell>
        <mxCell id="0jSy_ca2VGsoWOgGTYAR-33" value="&lt;div&gt;&lt;b&gt;&lt;font color=&quot;#4da1f5&quot; style=&quot;font-size: 18px;&quot;&gt;API&amp;nbsp;&lt;/font&gt;&lt;/b&gt;&lt;/div&gt;&lt;div&gt;&lt;b&gt;&lt;font color=&quot;#4da1f5&quot; style=&quot;font-size: 18px;&quot;&gt;SERVER&lt;/font&gt;&lt;/b&gt;&lt;/div&gt;" style="text;strokeColor=none;align=center;fillColor=none;html=1;verticalAlign=middle;whiteSpace=wrap;rounded=0;movable=1;resizable=1;rotatable=1;deletable=1;editable=1;locked=0;connectable=1;fontStyle=0;container=0;" parent="1" vertex="1">
          <mxGeometry x="32.11089830375965" y="336.7869002098601" width="119.99949039481245" height="66.08943939056496" as="geometry" />
        </mxCell>
        <mxCell id="0nAO6F9HnUqSbRuhooS3-1" style="edgeStyle=orthogonalEdgeStyle;rounded=0;orthogonalLoop=1;jettySize=auto;html=1;exitX=0.5;exitY=1;exitDx=0;exitDy=0;" parent="1" source="0BnKFGhoWImMdGGhruV1-5" target="0BnKFGhoWImMdGGhruV1-5" edge="1">
          <mxGeometry relative="1" as="geometry" />
        </mxCell>
        <mxCell id="0BnKFGhoWImMdGGhruV1-3" value="" style="rounded=1;whiteSpace=wrap;html=1;movable=1;resizable=1;rotatable=1;deletable=1;editable=1;locked=0;connectable=1;strokeColor=#4DA1F5;container=0;" parent="1" vertex="1">
          <mxGeometry x="204.71163503134665" y="326.7345863183673" width="119.99949039481248" height="330.8883814614401" as="geometry" />
        </mxCell>
        <mxCell id="0BnKFGhoWImMdGGhruV1-6" value="&lt;b&gt;&lt;font color=&quot;#4da1f5&quot; style=&quot;font-size: 18px;&quot;&gt;PUBLIC&lt;/font&gt;&lt;/b&gt;&lt;div&gt;&lt;b&gt;&lt;font size=&quot;3&quot; color=&quot;#4da1f5&quot; style=&quot;&quot;&gt;API&lt;/font&gt;&lt;/b&gt;&lt;/div&gt;" style="text;strokeColor=none;align=center;fillColor=none;html=1;verticalAlign=middle;whiteSpace=wrap;rounded=0;movable=1;resizable=1;rotatable=1;deletable=1;editable=1;locked=0;connectable=1;container=0;" parent="1" vertex="1">
          <mxGeometry x="205.78163503134664" y="342.5510509522241" width="119.99949039481245" height="54.55246449027609" as="geometry" />
        </mxCell>
        <mxCell id="0BnKFGhoWImMdGGhruV1-28" value="" style="aspect=fixed;sketch=0;html=1;dashed=0;whitespace=wrap;verticalLabelPosition=bottom;verticalAlign=top;fillColor=#2875E2;strokeColor=#ffffff;points=[[0.005,0.63,0],[0.1,0.2,0],[0.9,0.2,0],[0.5,0,0],[0.995,0.63,0],[0.72,0.99,0],[0.5,1,0],[0.28,0.99,0]];shape=mxgraph.kubernetes.icon2;kubernetesLabel=1;prIcon=api;movable=1;resizable=1;rotatable=1;deletable=1;editable=1;locked=0;connectable=1;container=0;" parent="1" vertex="1">
          <mxGeometry x="216.4" y="441.45" width="96.63" height="92.76" as="geometry" />
        </mxCell>
        <mxCell id="0BnKFGhoWImMdGGhruV1-40" value="&lt;b&gt;&lt;font color=&quot;#4d4d4d&quot;&gt;REST&amp;nbsp;&lt;/font&gt;&lt;/b&gt;&lt;div&gt;&lt;b&gt;&lt;font color=&quot;#4d4d4d&quot;&gt;Architectural Styles&lt;/font&gt;&lt;/b&gt;&lt;/div&gt;" style="text;strokeColor=none;align=center;fillColor=none;html=1;verticalAlign=middle;whiteSpace=wrap;rounded=0;movable=1;resizable=1;rotatable=1;deletable=1;editable=1;locked=0;connectable=1;container=0;" parent="1" vertex="1">
          <mxGeometry x="204.71163503134665" y="603.5336900373475" width="119.99949039481245" height="33.088838146144006" as="geometry" />
        </mxCell>
        <mxCell id="0jSy_ca2VGsoWOgGTYAR-11" value="" style="shape=singleArrow;whiteSpace=wrap;html=1;strokeColor=#4DA1F5;movable=1;resizable=1;rotatable=1;deletable=1;editable=1;locked=0;connectable=1;fillColor=#4DA1F5;flipH=0;fontStyle=0;container=0;" parent="1" vertex="1">
          <mxGeometry x="333.00289012974815" y="479.06351245848606" width="63.3330643750399" height="55.14806357690667" as="geometry" />
        </mxCell>
        <mxCell id="0BnKFGhoWImMdGGhruV1-19" value="&lt;b&gt;&lt;font color=&quot;#ffffff&quot; style=&quot;font-size: 12px;&quot;&gt;Response&lt;/font&gt;&lt;/b&gt;" style="text;strokeColor=none;align=center;fillColor=none;html=1;verticalAlign=middle;whiteSpace=wrap;rounded=0;movable=1;resizable=1;rotatable=1;deletable=1;editable=1;locked=0;connectable=1;flipH=1;fontStyle=0;container=0;" parent="1" vertex="1">
          <mxGeometry x="337.33620506067194" y="492.85052835271273" width="53.30532918232526" height="27.574031788453336" as="geometry" />
        </mxCell>
        <mxCell id="0jSy_ca2VGsoWOgGTYAR-14" value="" style="shape=singleArrow;whiteSpace=wrap;html=1;strokeColor=#4DA1F5;movable=1;resizable=1;rotatable=1;deletable=1;editable=1;locked=0;connectable=1;fillColor=#4DA1F5;flipH=1;container=0;" parent="1" vertex="1">
          <mxGeometry x="332.32289301751086" y="440.3215735798355" width="63.3330643750399" height="55.14806357690667" as="geometry" />
        </mxCell>
        <mxCell id="0jSy_ca2VGsoWOgGTYAR-15" value="&lt;b&gt;&lt;font color=&quot;#ffffff&quot; style=&quot;font-size: 12px;&quot;&gt;Request&lt;/font&gt;&lt;/b&gt;" style="text;strokeColor=none;align=center;fillColor=none;html=1;verticalAlign=middle;whiteSpace=wrap;rounded=0;movable=1;resizable=1;rotatable=1;deletable=1;editable=1;locked=0;connectable=1;container=0;" parent="1" vertex="1">
          <mxGeometry x="342.3228505504119" y="454.10858947406217" width="53.30532918232526" height="27.574031788453336" as="geometry" />
        </mxCell>
        <mxCell id="0jSy_ca2VGsoWOgGTYAR-44" value="" style="rounded=1;whiteSpace=wrap;html=1;movable=1;resizable=1;rotatable=1;deletable=1;editable=1;locked=0;connectable=1;strokeColor=#4DA1F5;container=0;" parent="1" vertex="1">
          <mxGeometry x="738.7714651149142" y="327.9572775293668" width="119.99949039481245" height="330.8883814614401" as="geometry" />
        </mxCell>
        <mxCell id="0jSy_ca2VGsoWOgGTYAR-55" value="&lt;b style=&quot;&quot;&gt;&lt;font color=&quot;#4d4d4d&quot;&gt;Unified&lt;/font&gt;&lt;/b&gt;&lt;div&gt;&lt;b style=&quot;&quot;&gt;&lt;font color=&quot;#4d4d4d&quot;&gt;Interface&lt;/font&gt;&lt;/b&gt;&lt;/div&gt;" style="text;strokeColor=none;align=center;fillColor=none;html=1;verticalAlign=middle;whiteSpace=wrap;rounded=0;movable=1;resizable=1;rotatable=1;deletable=1;editable=1;locked=0;connectable=1;container=0;" parent="1" vertex="1">
          <mxGeometry x="738.7666238656325" y="600.0321849075414" width="120.77948708237874" height="40.09264222041115" as="geometry" />
        </mxCell>
        <mxCell id="0jSy_ca2VGsoWOgGTYAR-56" value="&lt;font style=&quot;font-size: 18px;&quot; color=&quot;#4da1f5&quot;&gt;&lt;b style=&quot;&quot;&gt;DATA STORAGE&lt;/b&gt;&lt;/font&gt;" style="text;strokeColor=none;align=center;fillColor=none;html=1;verticalAlign=middle;whiteSpace=wrap;rounded=0;movable=1;resizable=1;rotatable=1;deletable=1;editable=1;locked=0;connectable=1;container=0;fontStyle=0" parent="1" vertex="1">
          <mxGeometry x="738.7703540085217" y="342.55600186328667" width="119.99949039481245" height="54.55246449027608" as="geometry" />
        </mxCell>
        <mxCell id="mbMBVFqvLCmvOvco8HTU-1" value="" style="image;aspect=fixed;html=1;points=[];align=center;fontSize=12;image=img/lib/azure2/databases/Data_Factory.svg;movable=1;resizable=1;rotatable=1;deletable=1;editable=1;locked=0;connectable=1;fontStyle=0;container=0;" parent="1" vertex="1">
          <mxGeometry x="410.6760333549235" y="447.36813692630517" width="84.63070739327941" height="84.63070739327941" as="geometry" />
        </mxCell>
        <mxCell id="mbMBVFqvLCmvOvco8HTU-3" value="" style="image;aspect=fixed;html=1;points=[];align=center;fontSize=12;image=img/lib/azure2/analytics/Azure_Databricks.svg;" parent="1" vertex="1">
          <mxGeometry x="755.0200000000001" y="436.42" width="88.27" height="95.58" as="geometry" />
        </mxCell>
        <mxCell id="mbMBVFqvLCmvOvco8HTU-5" value="" style="group" parent="1" vertex="1" connectable="0">
          <mxGeometry x="565.1411311564327" y="327.9752729625198" width="120.8494903948125" height="330.8883814614401" as="geometry" />
        </mxCell>
        <mxCell id="0jSy_ca2VGsoWOgGTYAR-21" value="" style="rounded=1;whiteSpace=wrap;html=1;movable=1;resizable=1;rotatable=1;deletable=1;editable=1;locked=0;connectable=1;strokeColor=#4DA1F5;container=0;fontStyle=0" parent="mbMBVFqvLCmvOvco8HTU-5" vertex="1">
          <mxGeometry width="119.9994903948125" height="330.8883814614401" as="geometry" />
        </mxCell>
        <mxCell id="0jSy_ca2VGsoWOgGTYAR-22" value="&lt;font style=&quot;font-size: 18px;&quot; color=&quot;#4da1f5&quot;&gt;&lt;b style=&quot;&quot;&gt;RAW DATA STORAGE&lt;/b&gt;&lt;/font&gt;" style="text;strokeColor=none;align=center;fillColor=none;html=1;verticalAlign=middle;whiteSpace=wrap;rounded=0;movable=1;resizable=1;rotatable=1;deletable=1;editable=1;locked=0;connectable=1;container=0;fontStyle=0" parent="mbMBVFqvLCmvOvco8HTU-5" vertex="1">
          <mxGeometry y="13.5036035996348" width="119.99949039481245" height="54.55246449027609" as="geometry" />
        </mxCell>
        <mxCell id="0jSy_ca2VGsoWOgGTYAR-42" value="&lt;b style=&quot;&quot;&gt;&lt;font color=&quot;#4d4d4d&quot;&gt;Central&lt;/font&gt;&lt;/b&gt;&lt;div&gt;&lt;b style=&quot;&quot;&gt;&lt;font color=&quot;#4d4d4d&quot;&gt;Repository&lt;/font&gt;&lt;/b&gt;&lt;/div&gt;" style="text;strokeColor=none;align=center;fillColor=none;html=1;verticalAlign=middle;whiteSpace=wrap;rounded=0;movable=1;resizable=1;rotatable=1;deletable=1;editable=1;locked=0;connectable=1;container=0;fontStyle=0" parent="mbMBVFqvLCmvOvco8HTU-5" vertex="1">
          <mxGeometry x="0.8500000000000227" y="270.9772930526507" width="119.99949039481245" height="40.09264222041116" as="geometry" />
        </mxCell>
        <mxCell id="mbMBVFqvLCmvOvco8HTU-19" value="" style="image;sketch=0;aspect=fixed;html=1;points=[];align=center;fontSize=12;image=img/lib/mscae/Data_Lake.svg;" parent="mbMBVFqvLCmvOvco8HTU-5" vertex="1">
          <mxGeometry x="23.95" y="113.01999999999998" width="72.94" height="95.98" as="geometry" />
        </mxCell>
        <mxCell id="mbMBVFqvLCmvOvco8HTU-25" value="&lt;font color=&quot;#4da1f5&quot;&gt;&lt;b&gt;Azure Data Lake&lt;/b&gt;&lt;/font&gt;" style="text;strokeColor=none;align=center;fillColor=none;html=1;verticalAlign=middle;whiteSpace=wrap;rounded=0;movable=1;resizable=1;rotatable=1;deletable=1;editable=1;locked=0;connectable=1;container=0;" parent="mbMBVFqvLCmvOvco8HTU-5" vertex="1">
          <mxGeometry x="2.222203198853549" y="203.02404481908428" width="115.5586645356622" height="40.09264222041116" as="geometry" />
        </mxCell>
        <mxCell id="mbMBVFqvLCmvOvco8HTU-6" value="" style="group" parent="1" vertex="1" connectable="0">
          <mxGeometry x="912.3211311564328" y="327.9752729625198" width="120.8494903948125" height="330.8883814614401" as="geometry" />
        </mxCell>
        <mxCell id="mbMBVFqvLCmvOvco8HTU-7" value="" style="rounded=1;whiteSpace=wrap;html=1;movable=1;resizable=1;rotatable=1;deletable=1;editable=1;locked=0;connectable=1;strokeColor=#4DA1F5;container=0;fontStyle=0" parent="mbMBVFqvLCmvOvco8HTU-6" vertex="1">
          <mxGeometry width="119.9994903948125" height="330.8883814614401" as="geometry" />
        </mxCell>
        <mxCell id="mbMBVFqvLCmvOvco8HTU-8" value="&lt;font style=&quot;font-size: 18px;&quot; color=&quot;#4da1f5&quot;&gt;&lt;b style=&quot;&quot;&gt;TRANSFORM DATA STORAGE&lt;/b&gt;&lt;/font&gt;" style="text;strokeColor=none;align=center;fillColor=none;html=1;verticalAlign=middle;whiteSpace=wrap;rounded=0;movable=1;resizable=1;rotatable=1;deletable=1;editable=1;locked=0;connectable=1;container=0;fontStyle=0" parent="mbMBVFqvLCmvOvco8HTU-6" vertex="1">
          <mxGeometry x="0.42" y="22.0236035996348" width="119.99949039481245" height="54.55246449027609" as="geometry" />
        </mxCell>
        <mxCell id="mbMBVFqvLCmvOvco8HTU-9" value="&lt;b style=&quot;&quot;&gt;&lt;font color=&quot;#4d4d4d&quot;&gt;Central&amp;nbsp;&lt;/font&gt;&lt;/b&gt;&lt;div&gt;&lt;b style=&quot;&quot;&gt;&lt;font color=&quot;#4d4d4d&quot;&gt;Repository&lt;/font&gt;&lt;/b&gt;&lt;/div&gt;" style="text;strokeColor=none;align=center;fillColor=none;html=1;verticalAlign=middle;whiteSpace=wrap;rounded=0;movable=1;resizable=1;rotatable=1;deletable=1;editable=1;locked=0;connectable=1;container=0;fontStyle=0" parent="mbMBVFqvLCmvOvco8HTU-6" vertex="1">
          <mxGeometry x="0.8500000000000227" y="270.9772930526507" width="119.99949039481245" height="40.09264222041116" as="geometry" />
        </mxCell>
        <mxCell id="mbMBVFqvLCmvOvco8HTU-20" value="" style="image;sketch=0;aspect=fixed;html=1;points=[];align=center;fontSize=12;image=img/lib/mscae/Data_Lake.svg;" parent="mbMBVFqvLCmvOvco8HTU-6" vertex="1">
          <mxGeometry x="23.949999999999882" y="113.01999999999998" width="72.94" height="95.98" as="geometry" />
        </mxCell>
        <mxCell id="mbMBVFqvLCmvOvco8HTU-26" value="&lt;font color=&quot;#4da1f5&quot;&gt;&lt;b&gt;Azure Data Lake&lt;/b&gt;&lt;/font&gt;" style="text;strokeColor=none;align=center;fillColor=none;html=1;verticalAlign=middle;whiteSpace=wrap;rounded=0;movable=1;resizable=1;rotatable=1;deletable=1;editable=1;locked=0;connectable=1;container=0;" parent="mbMBVFqvLCmvOvco8HTU-6" vertex="1">
          <mxGeometry x="2.222203198853549" y="203.02404481908428" width="115.5586645356622" height="40.09264222041116" as="geometry" />
        </mxCell>
        <mxCell id="mbMBVFqvLCmvOvco8HTU-12" value="" style="group" parent="1" vertex="1" connectable="0">
          <mxGeometry x="1259.9958500301552" y="327.7372775293668" width="120.78432833166062" height="330.88838146144" as="geometry" />
        </mxCell>
        <mxCell id="mbMBVFqvLCmvOvco8HTU-13" value="" style="rounded=1;whiteSpace=wrap;html=1;movable=1;resizable=1;rotatable=1;deletable=1;editable=1;locked=0;connectable=1;strokeColor=#4DA1F5;container=0;" parent="mbMBVFqvLCmvOvco8HTU-12" vertex="1">
          <mxGeometry x="0.7848379368481346" width="119.99949039481245" height="330.8883814614401" as="geometry" />
        </mxCell>
        <mxCell id="mbMBVFqvLCmvOvco8HTU-14" value="&lt;font style=&quot;font-size: 18px;&quot; color=&quot;#4da1f5&quot;&gt;&lt;b style=&quot;&quot;&gt;DASHBOARD&lt;/b&gt;&lt;/font&gt;" style="text;strokeColor=none;align=center;fillColor=none;html=1;verticalAlign=middle;whiteSpace=wrap;rounded=0;movable=1;resizable=1;rotatable=1;deletable=1;editable=1;locked=0;connectable=1;container=0;fontStyle=0" parent="mbMBVFqvLCmvOvco8HTU-12" vertex="1">
          <mxGeometry x="0.7837268304556346" y="3.9987243339198137" width="119.99949039481245" height="54.55246449027609" as="geometry" />
        </mxCell>
        <mxCell id="mbMBVFqvLCmvOvco8HTU-15" value="" style="image;aspect=fixed;html=1;points=[];align=center;fontSize=12;image=img/lib/azure2/analytics/Power_BI_Embedded.svg;container=0;" parent="mbMBVFqvLCmvOvco8HTU-12" vertex="1">
          <mxGeometry x="24.069911753368388" y="114.21128936151098" width="71.26796412065634" height="95.01801316386506" as="geometry" />
        </mxCell>
        <mxCell id="mbMBVFqvLCmvOvco8HTU-16" value="&lt;b style=&quot;&quot;&gt;&lt;font color=&quot;#4d4d4d&quot;&gt;Complete&lt;/font&gt;&lt;/b&gt;&lt;div&gt;&lt;b style=&quot;&quot;&gt;&lt;font color=&quot;#4d4d4d&quot;&gt;Overview&lt;/font&gt;&lt;/b&gt;&lt;/div&gt;" style="text;strokeColor=none;align=center;fillColor=none;html=1;verticalAlign=middle;whiteSpace=wrap;rounded=0;movable=1;resizable=1;rotatable=1;deletable=1;editable=1;locked=0;connectable=1;container=0;" parent="mbMBVFqvLCmvOvco8HTU-12" vertex="1">
          <mxGeometry y="271.5549073781744" width="120.77948708237874" height="40.09264222041116" as="geometry" />
        </mxCell>
        <mxCell id="mbMBVFqvLCmvOvco8HTU-29" value="&lt;font color=&quot;#4da1f5&quot;&gt;&lt;b&gt;Power BI&lt;/b&gt;&lt;/font&gt;" style="text;strokeColor=none;align=center;fillColor=none;html=1;verticalAlign=middle;whiteSpace=wrap;rounded=0;movable=1;resizable=1;rotatable=1;deletable=1;editable=1;locked=0;connectable=1;container=0;" parent="mbMBVFqvLCmvOvco8HTU-12" vertex="1">
          <mxGeometry x="3.007484325131154" y="203.2620402522373" width="115.5586645356622" height="40.09264222041116" as="geometry" />
        </mxCell>
        <mxCell id="mbMBVFqvLCmvOvco8HTU-17" value="" style="shape=singleArrow;whiteSpace=wrap;html=1;strokeColor=#4DA1F5;movable=1;resizable=1;rotatable=1;deletable=1;editable=1;locked=0;connectable=1;fillColor=#4DA1F5;container=0;" parent="1" vertex="1">
          <mxGeometry x="1033.1683161739566" y="464.60851292323673" width="52.77755364586659" height="55.14765163992383" as="geometry" />
        </mxCell>
        <mxCell id="0jSy_ca2VGsoWOgGTYAR-54" value="" style="rounded=1;whiteSpace=wrap;html=1;movable=1;resizable=1;rotatable=1;deletable=1;editable=1;locked=0;connectable=1;strokeColor=#4DA1F5;container=0;" parent="1" vertex="1">
          <mxGeometry x="1086.7306879670034" y="327.9772775293668" width="119.99949039481245" height="330.8883814614401" as="geometry" />
        </mxCell>
        <mxCell id="0jSy_ca2VGsoWOgGTYAR-59" value="&lt;font style=&quot;font-size: 18px;&quot; color=&quot;#4da1f5&quot;&gt;&lt;b style=&quot;&quot;&gt;DATA ANALYSIS&lt;/b&gt;&lt;/font&gt;" style="text;strokeColor=none;align=center;fillColor=none;html=1;verticalAlign=middle;whiteSpace=wrap;rounded=0;movable=1;resizable=1;rotatable=1;deletable=1;editable=1;locked=0;connectable=1;container=0;fontStyle=0" parent="1" vertex="1">
          <mxGeometry x="1086.3395768606108" y="342.5560018632866" width="119.99949039481245" height="54.55246449027609" as="geometry" />
        </mxCell>
        <mxCell id="0jSy_ca2VGsoWOgGTYAR-61" value="&lt;b style=&quot;&quot;&gt;&lt;font color=&quot;#4d4d4d&quot;&gt;Visualisation&lt;/font&gt;&lt;/b&gt;&lt;div&gt;&lt;b style=&quot;background-color: initial;&quot;&gt;&lt;font color=&quot;#4d4d4d&quot;&gt;&amp;amp; Reporting&lt;/font&gt;&lt;/b&gt;&lt;/div&gt;" style="text;strokeColor=none;align=center;fillColor=none;html=1;verticalAlign=middle;whiteSpace=wrap;rounded=0;movable=1;resizable=1;rotatable=1;deletable=1;editable=1;locked=0;connectable=1;container=0;" parent="1" vertex="1">
          <mxGeometry x="1085.9458500301553" y="599.5321849075413" width="120.77948708237874" height="40.09264222041116" as="geometry" />
        </mxCell>
        <mxCell id="mbMBVFqvLCmvOvco8HTU-18" value="" style="image;aspect=fixed;html=1;points=[];align=center;fontSize=12;image=img/lib/azure2/analytics/Azure_Synapse_Analytics.svg;" parent="1" vertex="1">
          <mxGeometry x="1102.37" y="433.19" width="88.73" height="102.04" as="geometry" />
        </mxCell>
        <mxCell id="mbMBVFqvLCmvOvco8HTU-21" value="" style="shape=singleArrow;whiteSpace=wrap;html=1;strokeColor=#4DA1F5;movable=1;resizable=1;rotatable=1;deletable=1;editable=1;locked=0;connectable=1;fillColor=#4DA1F5;container=0;" parent="1" vertex="1">
          <mxGeometry x="1207.2183161739565" y="470.6885129232367" width="52.77755364586659" height="55.14765163992383" as="geometry" />
        </mxCell>
        <mxCell id="mbMBVFqvLCmvOvco8HTU-22" value="" style="shape=image;aspect=fixed;image=data:image/svg+xml,PD94bWwgdmVyc2lvbj0iMS4wIiBlbmNvZGluZz0iVVRGLTgiPz4KPHN2ZyBpbmtzY2FwZTp2ZXJzaW9uPSIxLjAuMiAoZTg2Yzg3MDg3OSwgMjAyMS0wMS0xNSwgY3VzdG9tKSIgc29kaXBvZGk6ZG9jbmFtZT0iQXBhY2hlX1NwYXJrX2xvZ28uc3ZnIiB2ZXJzaW9uPSIxLjEiIHZpZXdCb3g9IjAgMCA0MTQgMjE1IiB4bWw6c3BhY2U9InByZXNlcnZlIiB4bWxucz0iaHR0cDovL3d3dy53My5vcmcvMjAwMC9zdmciIHhtbG5zOmNjPSJodHRwOi8vY3JlYXRpdmVjb21tb25zLm9yZy9ucyMiIHhtbG5zOmRjPSJodHRwOi8vcHVybC5vcmcvZGMvZWxlbWVudHMvMS4xLyIgeG1sbnM6aW5rc2NhcGU9Imh0dHA6Ly93d3cuaW5rc2NhcGUub3JnL25hbWVzcGFjZXMvaW5rc2NhcGUiIHhtbG5zOnJkZj0iaHR0cDovL3d3dy53My5vcmcvMTk5OS8wMi8yMi1yZGYtc3ludGF4LW5zIyIgeG1sbnM6c29kaXBvZGk9Imh0dHA6Ly9zb2RpcG9kaS5zb3VyY2Vmb3JnZS5uZXQvRFREL3NvZGlwb2RpLTAuZHRkIj4KPHRpdGxlPkFwYWNoZSBTcGFyayBsb2dvPC90aXRsZT4KPG1ldGFkYXRhPgogICAgPHJkZjpSREY+CiAgICAgICAgPGNjOldvcmsgcmRmOmFib3V0PSIiPgogICAgICAgICAgICA8ZGM6Zm9ybWF0PmltYWdlL3N2Zyt4bWw8L2RjOmZvcm1hdD4KICAgICAgICAgICAgPGRjOnR5cGUgcmRmOnJlc291cmNlPSJodHRwOi8vcHVybC5vcmcvZGMvZGNtaXR5cGUvU3RpbGxJbWFnZSIvPgogICAgICAgICAgICA8ZGM6dGl0bGUvPgogICAgICAgIDwvY2M6V29yaz4KICAgIDwvcmRmOlJERj4KPC9tZXRhZGF0YT4KPHNvZGlwb2RpOm5hbWVkdmlldyBib3JkZXJjb2xvcj0iIzY2NjY2NiIgYm9yZGVyb3BhY2l0eT0iMSIgZ3JpZHRvbGVyYW5jZT0iMTAiIGd1aWRldG9sZXJhbmNlPSIxMCIgaW5rc2NhcGU6Y3VycmVudC1sYXllcj0iZzEyNjUwIiBpbmtzY2FwZTpjeD0iODkuMDkzNDgzIiBpbmtzY2FwZTpjeT0iMTc3LjQ5ODE5IiBpbmtzY2FwZTpwYWdlb3BhY2l0eT0iMCIgaW5rc2NhcGU6cGFnZXNoYWRvdz0iMiIgaW5rc2NhcGU6d2luZG93LWhlaWdodD0iMTAxNCIgaW5rc2NhcGU6d2luZG93LW1heGltaXplZD0iMSIgaW5rc2NhcGU6d2luZG93LXdpZHRoPSIxOTIwIiBpbmtzY2FwZTp3aW5kb3cteD0iMCIgaW5rc2NhcGU6d2luZG93LXk9IjM2IiBpbmtzY2FwZTp6b29tPSIxLjA4NjMxNSIgb2JqZWN0dG9sZXJhbmNlPSIxMCIgcGFnZWNvbG9yPSIjZmZmZmZmIiBzaG93Z3JpZD0iZmFsc2UiLz48ZyB0cmFuc2Zvcm09Im1hdHJpeCgxLjMzIDAgMCAxLjMzIDAgNC4wNWUtNikiIGlua3NjYXBlOmdyb3VwbW9kZT0ibGF5ZXIiIGlua3NjYXBlOmxhYmVsPSJzcGFyayI+PHBhdGggZD0ibTI4NCA4MS41Yy0uMjY5LS41NzUtLjM5LS44NjQtLjUzNS0xLjE0LTMuODktNy40LTcuNzctMTQuOC0xMS43LTIyLjItLjM5NC0uNzQyLS4zNDQtMS4xOC4xOTUtMS44MiA2LjE5LTcuMjMgMTIuMy0xNC41IDE4LjUtMjEuNy4yMTktLjI1NC40MTQtLjUyMy40OTYtLjk3Ni0xLjguNDY5LTMuNi45MzMtNS40MSAxLjQxLTcuNDcgMS45OC0xNSAzLjk1LTIyLjQgNS45Ni0uNjk1LjE4Ny0xLjAxLS4wMTYtMS4zNi0uNTk0LTQuMjQtNy4wOS04LjUxLTE0LjItMTIuOC0yMS4yLS4yMTktLjM2Ny0uNDU4LS43MjMtLjkyNi0xLjAzLS4zNDQgMS44OS0uNjkyIDMuNzctMS4wMyA1LjY2LTEuMTkgNi42Ny0yLjM4IDEzLjMtMy41NiAyMC0uMTI5LjcxOS0uMzA1IDEuNDQtLjM2NyAyLjE2LS4wNTkuNjg4LS40MTQuOTQyLTEuMDQgMS4xNC04LjgxIDIuNzctMTcuNiA1LjU2LTI2LjQgOC4zNS0uMzg2LjEyMS0uNzY1LjI4MS0xLjE4LjY1NiA3LjIgMi44NiAxNC40IDUuNzIgMjEuNyA4LjYzLS4yNjYuMjExLS40NDIuMzc1LS42MzcuNS00LjUgMi45MS05LjAxIDUuODItMTMuNSA4Ljc0LS41MzkuMzUyLS45NjUuNDAyLTEuNTcuMTI5LTUuMzgtMi40Mi0xMC44LTQuOC0xNi4yLTcuMi0yLjQyLTEuMDgtNC41OS0yLjUxLTYuMjgtNC41OS0zLjgzLTQuNjgtMy4wNy0xMCAyLjAzLTEzLjMgMS42Ny0xLjA3IDMuNTctMS44NiA1LjQ2LTIuNDggOC42My0yLjgxIDE3LjMtNS41MiAyNS45LTguMjQuNzI2LS4yMzEgMS4wNi0uNTU1IDEuMi0xLjM0IDEuMTYtNi42OCAyLjM1LTEzLjQgMy41Ni0yMCAuNjQ0LTMuNTcuOTg0LTcuMjIgMi43Mi0xMC41LjY2NS0xLjI2IDEuNDYtMi40OSAyLjQyLTMuNTQgMy40NC0zLjgyIDguMjMtMy45NiAxMS45LS4zMjggMS4yMyAxLjIzIDIuMjggMi42NyAzLjE5IDQuMTYgNCA2LjUzIDcuOTQgMTMuMSAxMS45IDE5LjcuNDY1Ljc3Ny44ODMuOTMzIDEuNzQuNzA3IDkuNjUtMi41OSAxOS4zLTUuMTQgMjktNy42OSAyLS41MjcgNC4wMS0uNzE4IDYuMDYtLjMzNSA0LjQ1LjgzMiA2LjQgNC4yMiA0Ljg5IDguNTMtLjY4MyAxLjk2LTEuODcgMy42MS0zLjIgNS4xOC02Ljc0IDcuOTMtMTMuNSAxNS45LTIwLjIgMjMuOC0uNTUxLjY0OC0uNTYyIDEuMTEtLjE4IDEuODQgNC4wNCA3LjYxIDguMDQgMTUuMiAxMi4xIDIyLjkuOTYxIDEuODIgMS43IDMuNzIgMS43MiA1LjgxLjA0NyA0Ljc2LTMuNDQgOC42Ni04LjE3IDkuMzYtMi42NS4zODctNS4xMS0uMTc5LTcuNi0uOTQ1LTYuMDUtMS44Ny0xMi4xLTMuNzEtMTguMi01LjU0LS41NjMtLjE2OC0uNzc4LS4zOTEtLjg3OS0uOTk2LS42OTYtNC4yNy0xLjQ2LTguNTMtMi4yLTEyLjgtLjAxOS0uMTE3LjAxNi0uMjQyLjAzNi0uNTA0IDYuOTEgMS45MSAxMy44IDMuNzkgMjAuOSA1Ljc2IiBzdHlsZT0iZmlsbC1ydWxlOmV2ZW5vZGQ7ZmlsbDojZTI1YTFjIi8+PHBhdGggZD0ibTI3MiAxNDRjLTUuNDYtLjAwOC0xMC45LS4wMzUtMTYuNC0uMDExLS43MjMgMC0xLjEzLS4yMDctMS41My0uODIxLTYuNDYtOS44NC0xMy0xOS43LTE5LjQtMjkuNS0uMjA3LS4zMTItLjQyNi0uNjEzLS43OTMtMS4xNC0xLjM5IDEwLjYtMi43NiAyMS00LjEzIDMxLjRoLTE0LjNjLjE2OC0xLjM5LjMxNy0yLjc0LjQ5My00LjA4IDEuMzktMTAuNyAyLjgtMjEuMyA0LjItMzIgMS4zNC0xMC4yIDIuNjctMjAuNCA0LjAzLTMwLjYuMDM5LS4zMDEuMjQyLS42ODguNDg4LS44NDggNC45Mi0zLjIxIDkuODYtNi4zOSAxNC44LTkuNTcuMDcxLS4wNDcuMTcyLS4wNTEuNDI2LS4xMjUtMS40OSAxMS40LTIuOTcgMjIuNy00LjQ2IDM0IC4wNTkuMDM5LjExNy4wODIuMTc2LjEyMSA3Ljc1LTguNTggMTUuNS0xNy4yIDIzLjQtMjUuOS4yMjcgMS4zMi40MjYgMi40NS42MjEgMy41OC41NTUgMy4yMyAxLjA5IDYuNDggMS42OCA5LjcxLjEyMS42NTItLjA1NSAxLjA1LS40ODggMS41MS01LjAxIDUuMjQtMTAgMTAuNS0xNSAxNS44LS4yMTkuMjMxLS40MjYuNDY5LS42NzYuNzQzLjE2LjI1My4yOTcuNS40NTcuNzI2IDguNjEgMTIuMSAxNy4yIDI0LjIgMjUuOCAzNi4zLjE1Ni4yMTkuMzgyLjM5MS41NzQuNTg2di4xOTEiIHN0eWxlPSJmaWxsLXJ1bGU6ZXZlbm9kZDtmaWxsOiMzYzNhM2UiLz48cGF0aCBkPSJtMTAzIDExMmMtLjIxOS0xLjExLS4zNzUtMi43NS0uODcxLTQuMjgtMi40LTcuMzktOS45Ny0xMS40LTE3LjgtOS42MS04LjYxIDItMTQuOCA4Ljc3LTE1LjYgMTcuNi0uNjYgNi41IDIuODQgMTIuOCA5LjM0IDE1LjEgNS4yNCAxLjg5IDEwLjMgMS4xIDE1LTEuNzEgNi4yMS0zLjcyIDkuNTctOS4yNSAxMC0xNy4xem0tMzcuOCAyNy41Yy0uNDIyIDMuMTgtLjgyOCA2LjE3LTEuMjIgOS4xNy0uNTIzIDMuOTgtMS4wNSA3Ljk3LTEuNTUgMTItLjA1OC40NjUtLjE5OS42NzItLjY5OS42NjgtMy45My0uMDE1LTcuODYtLjAxMS0xMS44LS4wMTktLjA5IDAtLjE4LS4wNDctLjM5MS0uMTA5LjIzOC0xLjg4LjQ2OS0zLjc3LjcxNS01LjY1Ljg2Ny02LjYgMS43My0xMy4yIDIuNjEtMTkuOCAxLjAxLTcuNTYgMS44LTE1LjEgMy4wOS0yMi42IDIuMjgtMTMuMyAxMy42LTI0LjcgMjYuOC0yNy42IDcuNjctMS42NiAxNS0uODkxIDIxLjcgMy40MyA2LjY4IDQuMyAxMC41IDEwLjYgMTEuNCAxOC40IDEuMjQgMTEuMS0yLjg1IDIwLjMtMTAuNyAyOC01LjE4IDUuMDEtMTEuNCA4LjE5LTE4LjUgOS4yNy03LjM3IDEuMTEtMTQuMy0uMTE3LTIwLjUtNC40Ni0uMjI3LS4xNi0uNDczLS4zLS44NjMtLjU0NiIgc3R5bGU9ImZpbGwtcnVsZTpldmVub2RkO2ZpbGw6IzNjM2EzZSIvPjxwYXRoIGQ9Im01OC42IDc2LjVjLTQuNCAzLjI4LTguNjUgNi40NC0xMi45IDkuNjEtLjY4Ny0xLjA4LTEuMy0yLjE2LTIuMDItMy4xNy0xLjg1LTIuNTktNC4xNS00LjUyLTcuNDktNC43NS0yLjc4LS4xOTYtNS4xNi43MTgtNy4wNSAyLjc3LTEuNjkgMS44My0xLjkxIDQuNDQtLjMzMiA2LjUxIDEuNzQgMi4yOCAzLjY0IDQuNDQgNS41OSA2LjU1IDMuMjMgMy41IDYuNiA2Ljg2IDkuOCAxMC40IDIuOTEgMy4yIDUuMjQgNi43OCA1Ljk2IDExLjIuODU2IDUuMi0uMTgzIDEwLjEtMi42NCAxNC43LTQuNTUgOC40NS0xMS43IDEzLjQtMjEuMiAxNC45LTQuMTguNjc1LTguMzQuNTQzLTEyLjQtLjY1Ny01LjQxLTEuNTktOS4xOC01LjE0LTExLjYtMTAuMS0uODU1LTEuNzctMS41MS0zLjY0LTIuMjgtNS41NCA0LjczLTIuNTMgOS4zNC01IDE0LTcuNDkuMTYuMzg3LjI3Ny43MTEuNDI2IDEuMDIuNzk3IDEuNTkgMS40NSAzLjI4IDIuNDMgNC43NSAyLjkzIDQuMzUgNy42NSA1LjY3IDEyLjQgMy41MiAxLjIzLS41NTUgMi40Mi0xLjMzIDMuNDMtMi4yMyAzLjA4LTIuNzQgMy42Ni02LjU2IDEuMzgtMTAtMS4zMS0xLjk4LTIuOTUtMy43Ni00LjU1LTUuNTMtMy44Mi00LjI0LTcuOC04LjM1LTExLjUtMTIuNy0yLjU3LTIuOTgtNC4zMi02LjQ0LTQuODgtMTAuNC0uNjA1LTQuMzYuMjY2LTguNDYgMi41My0xMi4xIDUuNjMtOS4xMSAxMy44LTEzLjggMjQuNi0xMy41IDYuMTcuMjIzIDExLjEgMy4xMSAxNC45IDcuOTEgMS4xMyAxLjQyIDIuMTkgMi44OSAzLjM0IDQuNDMiIHN0eWxlPSJmaWxsLXJ1bGU6ZXZlbm9kZDtmaWxsOiMzYzNhM2UiLz48cGF0aCBkPSJtMTYzIDEyNWMtLjcxOSA1LjQ5LTEuNCAxMC43LTIuMSAxNS45LS4wMzkuMjY2LS4yNDYuNjI1LS40NjkuNzI3LTEwLjcgNC45NC0yNC43IDQuMjUtMzMuNC01LjY5LTQuNy01LjM0LTYuNjctMTEuNy02LjM4LTE4LjcuNjgzLTE2LjMgMTQuMi0zMC42IDMwLjQtMzIuNiA5LjQ1LTEuMTYgMTcuNyAxLjM5IDI0LjEgOC43NCA0LjM2IDUgNi4zOCAxMSA2LjA4IDE3LjYtLjE5NSA0LjM2LS44NzkgOC42OS0xLjQyIDEzLS43NyA2LjE0LTEuNjEgMTIuMy0yLjQyIDE4LjQtLjAzMS4yMTQtLjA3NC40MzMtLjEyNS43MTFoLTEyLjdjLjE2OC0xLjQxLjMyNC0yLjc5LjUwNC00LjE3LjkyMi03LjA5IDEuOTQtMTQuMiAyLjc1LTIxLjMuNTA0LTQuNDIuMTg3LTguODEtMS44NC0xMi45LTIuMTUtNC4zNS01Ljc1LTYuNjYtMTAuNS03LjE2LTkuODItMS4wNC0xOS4yIDUuNzgtMjEuMiAxNS40LTEuMzggNi4zOC43OTcgMTIuNSA1Ljg4IDE1LjkgNC45NSAzLjI5IDEwLjIgMy4zIDE1LjYgMS4xNyAyLjc0LTEuMDggNS4wNi0yLjggNy4yOC01LjExIiBzdHlsZT0iZmlsbC1ydWxlOmV2ZW5vZGQ7ZmlsbDojM2MzYTNlIi8+PHBhdGggZD0ibTIxNyA4Ni4zYy0uNTgyIDQuNDItMS4xNiA4Ljc3LTEuNzQgMTMuMi0yLjcgMC01LjM0LS4wMTUtNy45OC4wMDQtMi4xNC4wMTYtNC4wOSAxLjQtNC43NCAzLjQtLjI1Ljc4MS0uMzQzIDEuNjItLjQ1MyAyLjQ0LTEuMzQgMTAuMi0yLjY3IDIwLjMtNCAzMC40LS4zMzYgMi41Ni0uNjYgNS4xMi0uOTk2IDcuNzJoLTEzLjNjLjI0Ni0xLjk1LjQ4LTMuODQuNzI2LTUuNzMuODYzLTYuNTggMS43My0xMy4yIDIuNi0xOS43Ljc1NC01LjY5IDEuNDMtMTEuNCAyLjMyLTE3LjEgMS4xOS03LjYgOC43NS0xNC40IDE2LjQtMTQuNyAzLjY2LS4xNiA3LjMzLS4wMjcgMTEuMS0uMDI3IiBzdHlsZT0iZmlsbC1ydWxlOmV2ZW5vZGQ7ZmlsbDojM2MzYTNlIi8+PHBhdGggZD0ibTI4OCAxNDR2LTUuNmgtLjAzMWwtMi4yIDUuNmgtLjY5OWwtMi4yLTUuNmgtLjAzNXY1LjZoLTEuMXYtNi43MWgxLjcxbDIgNS4xIDEuOTctNS4xaDEuN3Y2Ljcxem0tOS43NC01LjgxdjUuODFoLTEuMXYtNS44MWgtMi4xdi0uODk5aDUuMzF2Ljg5OWgtMi4xIiBzdHlsZT0iZmlsbDojM2MzYTNlIi8+PHBhdGggZD0ibTc2LjMgNjcuMWgzLjI5bC0uNzc4LTQuOTh6bTMuODEgMy4yMmgtNS40N2wtMS43NCAzLjQxaC0zLjg4bDguNTUtMTZoMy43NGwyLjkxIDE2aC0zLjU5bC0uNTE2LTMuNDEiIHN0eWxlPSJmaWxsOiMzYzNhM2UiLz48cGF0aCBkPSJtOTkuNyA2MWgtMS45NWwtLjY1NiAzLjY5aDEuOTVjMS4xOCAwIDIuMTEtLjc3MyAyLjExLTIuMjMgMC0uOTY1LS41ODYtMS40Ni0xLjQ2LTEuNDZ6bS00LjcyLTMuMjJoNS4xMmMyLjY4IDAgNC41NSAxLjYgNC41NSA0LjM0IDAgMy40Ni0yLjQ0IDUuNzgtNS45MiA1Ljc4aC0yLjIxbC0xLjA0IDUuODVoLTMuMzRsMi44Mi0xNiIgc3R5bGU9ImZpbGw6IzNjM2EzZSIvPjxwYXRoIGQ9Im0xMTYgNjcuMWgzLjI5bC0uNzc3LTQuOTh6bTMuOCAzLjIyaC01LjQ3bC0xLjc0IDMuNDFoLTMuODhsOC41NS0xNmgzLjc0bDIuOTEgMTZoLTMuNTlsLS41MTYtMy40MSIgc3R5bGU9ImZpbGw6IzNjM2EzZSIvPjxwYXRoIGQ9Im0xNDEgNzMuMmMtMS4xMy41MTYtMi4zNy44MjQtMy42Mi44MjQtNC4yMyAwLTYuODgtMy4xNy02Ljg4LTcuMTQgMC01LjA4IDQuMjctOS4zNSA5LjM1LTkuMzUgMS4yNyAwIDIuNDIuMzA1IDMuMzYuODJsLS40NjkgMy44M2MtLjcwMy0uNzc3LTEuODQtMS4zMi0zLjI0LTEuMzItMi45MSAwLTUuNSAyLjYzLTUuNSA1LjY4IDAgMi4zMiAxLjQ2IDQuMTQgMy43NiA0LjE0IDEuNDEgMCAyLjc3LS41NDMgMy42OS0xLjI5bC0uNDQ1IDMuOCIgc3R5bGU9ImZpbGw6IzNjM2EzZSIvPjxwYXRoIGQ9Im0xNjIgNjcuM2gtNi45NWwtMS4xMyA2LjQzaC0zLjMzbDIuODItMTZoMy4zNGwtMS4xMiA2LjMyaDYuOTVsMS4xMy02LjMyaDMuMzRsLTIuODIgMTZoLTMuMzRsMS4xMi02LjQzIiBzdHlsZT0iZmlsbDojM2MzYTNlIi8+PHBhdGggZD0ibTE3NCA3My43IDIuODItMTZoOC44NmwtLjU2MyAzLjIyaC01LjUybC0uNTYzIDMuMWg1LjA3bC0uNTYzIDMuMjJoLTUuMDdsLS41NjMgMy4yMmg1LjUybC0uNTYzIDMuMjJoLTguODYiIHN0eWxlPSJmaWxsOiMzYzNhM2UiLz48L2c+PC9zdmc+Cg==;" parent="1" vertex="1">
          <mxGeometry x="775.02" y="449" width="48.28" height="25.06" as="geometry" />
        </mxCell>
        <mxCell id="mbMBVFqvLCmvOvco8HTU-24" value="&lt;font color=&quot;#4da1f5&quot;&gt;&lt;b&gt;Azure Data&amp;nbsp;&lt;/b&gt;&lt;/font&gt;&lt;div&gt;&lt;font color=&quot;#4da1f5&quot;&gt;&lt;b&gt;Factory&lt;/b&gt;&lt;/font&gt;&lt;/div&gt;" style="text;strokeColor=none;align=center;fillColor=none;html=1;verticalAlign=middle;whiteSpace=wrap;rounded=0;movable=1;resizable=1;rotatable=1;deletable=1;editable=1;locked=0;connectable=1;container=0;" parent="1" vertex="1">
          <mxGeometry x="396.4333343552863" y="535.2293177816041" width="115.5586645356622" height="40.09264222041116" as="geometry" />
        </mxCell>
        <mxCell id="mbMBVFqvLCmvOvco8HTU-27" value="&lt;font color=&quot;#4da1f5&quot;&gt;&lt;b&gt;Azure Databricks&lt;/b&gt;&lt;/font&gt;" style="text;strokeColor=none;align=center;fillColor=none;html=1;verticalAlign=middle;whiteSpace=wrap;rounded=0;movable=1;resizable=1;rotatable=1;deletable=1;editable=1;locked=0;connectable=1;container=0;" parent="1" vertex="1">
          <mxGeometry x="740.9933343552863" y="531.9993177816041" width="115.5586645356622" height="40.09264222041116" as="geometry" />
        </mxCell>
        <mxCell id="mbMBVFqvLCmvOvco8HTU-28" value="&lt;font color=&quot;#4da1f5&quot;&gt;&lt;b&gt;Azure Synapse Analytics&lt;/b&gt;&lt;/font&gt;" style="text;strokeColor=none;align=center;fillColor=none;html=1;verticalAlign=middle;whiteSpace=wrap;rounded=0;movable=1;resizable=1;rotatable=1;deletable=1;editable=1;locked=0;connectable=1;container=0;" parent="1" vertex="1">
          <mxGeometry x="1088.9533343552864" y="535.2293177816041" width="115.5586645356622" height="40.09264222041116" as="geometry" />
        </mxCell>
      </root>
    </mxGraphModel>
  </diagram>
</mxfile>
